<?xml version="1.0" encoding="utf-8"?>
<!-- Generator: Adobe Illustrator 24.3.0, SVG Export Plug-In . SVG Version: 6.00 Build 0)  -->
<svg version="1.1" id="Layer_1" xmlns="http://www.w3.org/2000/svg" xmlns:xlink="http://www.w3.org/1999/xlink" x="0px" y="0px"
	 viewBox="0 0 512 512" style="enable-background:new 0 0 512 512;" xml:space="preserve">
<style type="text/css">
	.st0{fill:#B2B6C6;}
	.st1{opacity:0.97;enable-background:new    ;}
	.st2{fill:#312C2C;}
	.st3{fill:#CDD1F9;}
	.st4{fill:#B6BCEF;}
	.st5{fill:#7C80C1;}
	.st6{fill:#424699;}
	.st7{fill:#5562AD;}
	.st8{fill:#252F8C;}
	.st9{fill:#241A22;}
	.st10{fill:#5354A6;}
	.st11{fill:#F9B46F;}
	.st12{fill:#F99B39;}
	.st13{fill:#FFFFFF;}
</style>
<path class="st0" d="M409.2,214.5c-6.2,0-12.5,0.6-18.6,1.9c-8.3-41.5-48.8-68.5-90.3-60.1c-5.9,1.2-11.7,3.1-17.1,5.6
	c-19.3-53.2-78-80.6-131.2-61.3s-80.6,78-61.3,131.2C44,233.1,7.3,271.7,8,318.3s38.6,84,85.2,84.1h316c51.9,0,93.9-42.1,93.9-93.9
	C503.1,256.5,461,214.5,409.2,214.5L409.2,214.5z"/>
<path class="st1" d="M409.2,205.9c-4.1,0-8.2,0.2-12.2,0.7c-11-35.9-44.1-60.4-81.7-60.5c-9.3,0-18.6,1.5-27.5,4.6
	c-21.9-47.3-73.7-73-124.6-61.8s-87.1,56.3-87.1,108.4c0,9,1.1,18,3.3,26.7c-48.5,7.4-83.1,50.9-79.5,99.8s44.2,86.8,93.3,87h316
	c56.6,0,102.5-45.9,102.5-102.5S465.8,205.9,409.2,205.9L409.2,205.9z M409.2,393.8h-316C51.1,394,16.7,360.2,16,318.1
	c-0.6-42.1,32.8-76.9,74.8-77.9c2.7-0.1,5.3-1.5,6.8-3.7c1.5-2.3,1.9-5.1,1-7.7c-17-48.5,8.3-101.6,56.6-119.2s101.7,7,119.8,55.1
	c0.8,2.2,2.5,4,4.7,4.9s4.7,0.9,6.8-0.1c8.9-4.2,18.7-6.3,28.5-6.3c32.5,0.1,60.5,22.9,67,54.8c0.9,4.6,5.4,7.6,10.1,6.7l0,0
	c5.6-1.1,11.2-1.7,16.9-1.7c47.2,0,85.4,38.2,85.4,85.4C494.6,355.6,456.3,393.8,409.2,393.8L409.2,393.8z"/>
<g>
	<path class="st2" d="M344.2,389.7L298,372.8c-1.4-0.6-2.5-1.7-2.9-3.2l-5.9-24.4c-0.6-2.5,0.9-4.9,3.4-5.5c2.5-0.6,4.9,0.9,5.5,3.4
		l5.3,22l43.9,16.2c2.4,0.8,3.6,3.4,2.8,5.8s-3.4,3.6-5.8,2.8C344.3,389.7,344.3,389.7,344.2,389.7L344.2,389.7z"/>
	<path class="st2" d="M382.7,405c-8.3-23.7-34.3-15.6-35.5-15.2c-2.4,0.8-4.9-0.5-5.7-3c-0.8-2.4,0.5-4.9,3-5.7l0,0
		c12.3-3.9,37.9-4.8,46.9,20.9c0.8,2.3-0.4,5-2.8,5.8C386,408.6,383.5,407.3,382.7,405z"/>
	<path class="st2" d="M358.1,432c-2.2-1.2-3-3.9-1.8-6.1c11.9-22.2-11.6-35.9-12.7-36.4c-2.1-1.3-2.9-4-1.6-6.1
		c1.2-2.2,4-2.9,6.2-1.7c11.2,6.3,29.1,24.8,16.2,48.6C363.1,432.3,360.3,433.2,358.1,432L358.1,432z"/>
	<path class="st2" d="M329.1,402.8c-2.1-1.4-2.8-4.2-1.4-6.3c6.1-9.5,15.5-14.8,15.8-15c2.2-1.3,5-0.4,6.2,1.7
		c1.3,2.2,0.4,5-1.7,6.2c-0.2,0.1-7.8,4.4-12.6,11.9C334.1,403.5,331.3,404.1,329.1,402.8L329.1,402.8z M346.2,335.9l-9.7-23.1
		c-1-2.3,0.1-5,2.3-5.9c2.3-1,5,0.1,5.9,2.3l0.1,0.1l8.7,20.8l46.1,8.3c2.5,0.4,4.1,2.8,3.7,5.2c-0.4,2.5-2.8,4.1-5.2,3.7l-48.5-8.7
		C348.1,338.4,346.7,337.3,346.2,335.9z"/>
	<path class="st2" d="M394.8,344.9c-1.1-2.2-0.3-4.9,2-6.1c11.5-5.9,36.6-10.8,49.5,13c1.2,2.2,0.3,4.9-1.8,6.2
		c-2.2,1.2-4.9,0.3-6.2-1.8c-12-22.1-36.4-9.9-37.5-9.3C398.7,348.1,395.9,347.2,394.8,344.9z"/>
	<path class="st2" d="M418.5,386.8L418.5,386.8c-2.5-0.8-3.7-3.4-2.8-5.8c8.1-23.6-17.3-33.5-18.4-34c-2.4-0.9-3.5-3.5-2.6-5.8
		c0.9-2.4,3.4-3.5,5.7-2.7l0.1,0c12.1,4.5,32.7,19.8,23.8,45.4C423.4,386.4,420.9,387.6,418.5,386.8L418.5,386.8z"/>
	<path class="st2" d="M378.5,358.8c-2-1.5-2.3-4.4-0.7-6.3l0,0c7.7-9.6,19-13.6,19.5-13.8c2.3-0.8,5,0.4,5.8,2.8
		c0.8,2.3-0.4,5-2.8,5.8c-0.1,0.1-9.4,3.4-15.5,11C383.3,360,380.4,360.4,378.5,358.8L378.5,358.8L378.5,358.8z"/>
	<path class="st3" d="M412.6,224.4C388,308.5,316.5,372.8,177,377.8l0,0L75.2,479.6l-70-17.8l159.6-110.1
		C248.3,193.2,321.3,171.3,321.6,171c4.8-25.2,19.6-34,19.9-34.3l-10.9-24.2c72.7-26.3,103.2,12.4,103.5,12.4l11.2,7.1l-3.9,21.5
		c0,0-16.2,12.4-21.3,37.8C418.9,196.9,417.1,208.9,412.6,224.4L412.6,224.4z"/>
	<path class="st4" d="M412.6,224.4C388,308.8,315.9,372.8,177,377.8l0,0L75.2,479.6l-70-17.8L26.7,447l52.9,13.4l101.7-101.8l0,0
		c139-5,211-68.9,235.6-153.4c0.5-1.4,0.8-2.8,1.2-4.2C417,207.1,415.3,215.1,412.6,224.4L412.6,224.4z M424.5,172.2
		c4.4-21.5,16.5-33.6,20.3-36.9l-3.3,18.3c0,0-12.1,9.2-18.7,28.2C423.5,177.7,424,174.4,424.5,172.2L424.5,172.2z"/>
	<path class="st5" d="M436.4,126.3c-1.2,2.8-2.5,5.2-6.1,6.3c-4.3,1.4-9,0.1-13.1-1.7c-4.1-1.9-7.9-4.5-12.2-5.9
		c-4.2-1.5-9.3-1.7-13,0.9c-0.9,0.7-1.9,1.7-2.8,2.9c-4.1,5.3-6,12.2-5.3,19c2.1,24,2.1,31.5-15.8,49.3
		c-14.9,14.8-31.3,28.4-50.2,37.3c-19,8.9-40.8,13-61.1,8.3c-8.7-2-9.8-5.5-9.6-11.9c0.1-0.5,0-1,0.1-1.4
		c43.9-48.9,74.4-58.2,74.4-58.2c4.8-25.2,19.6-34,19.9-34.3l-10.9-24.4c72.8-26.4,103.1,12.3,103.5,12.4L436.4,126.3L436.4,126.3z"
		/>
	<path class="st4" d="M436.4,126.3c-1.2,2.8-2.5,5.2-6.1,6.4c-4.3,1.4-9,0.1-13.1-1.7c-5.9-2.7-16.9-10.8-25.1-4.9
		c-0.9,0.7-1.9,1.7-2.8,2.9c-11.4,14.6-0.3,29.4-6.3,47.3c-2.7,8.3-8.8,14.8-14.9,21c-14.9,14.8-31.3,28.4-50.2,37.3
		c-19,8.9-40.8,13-61.1,8.3c-8.8-2.1-9.9-5.6-9.6-11.9c0-0.5,0-1,0.1-1.5c0.3-0.3,0.5-0.6,0.9-0.9c1.5,0.8,3.2,1.3,4.9,1.6
		c20.4,4.7,42.2,0.7,61.1-8.3c19-8.9,35.3-22.5,50.2-37.3c17.2-17,18.2-25,15.9-49.3c-0.5-6.8,1.2-13.6,5.3-19
		c0.9-1.2,1.9-2.2,2.8-2.8c3.7-2.6,8.8-2.4,13-0.9c7.9,2.7,16.3,10.5,25.3,7.6c0.6-0.2,1.1-0.4,1.6-0.7c4,3.2,5.8,5.6,5.8,5.6
		l1.8,1.1L436.4,126.3z"/>
	<path class="st6" d="M356.9,135.4l0.3,0.8c0,0-16.5,11.2-18.4,12.9c-9.2,8.4-14.4,19.8-16.8,32c0,0-30.1,9.3-73.6,57.4
		c-1.5-2.2-1.5-4.9-1.4-7.6c0-0.5,0-1,0.1-1.5c44-48.8,74.4-58.3,74.4-58.3c2.8-14.4,9.5-25.6,16.8-31.9c0-0.1,0.1-0.1,0.2-0.1
		C343.9,133.9,350.3,134.5,356.9,135.4L356.9,135.4z M436.4,126.3c-1.1,2.3-2.1,4.4-4.5,5.6c-14.5-13.6-39.2-22.4-72-17.2
		c-9,1.5-17.2,3.7-25.5,6.4l-3.9-8.8c2.7-0.9,5.2-1.8,7.7-2.6c67.6-21,95.3,14.9,95.7,15.1L436.4,126.3L436.4,126.3z"/>
	<path class="st5" d="M317.5,266.9L176.9,377.6l0,0L75.2,479.4l-70-17.8l159.6-110.1c23.2-44.1,45.7-77.7,66.1-103.2L317.5,266.9z"
		/>
	<path class="st7" d="M317.5,266.9l-9,7.1l-65.1-13.7c-20.4,25.5-12.9,38.4-36.2,82.5L26.7,467.3L5,461.7l159.6-110.1
		c23.2-44.1,45.7-77.7,66.1-103.2L317.5,266.9z"/>
	<path class="st8" d="M77.2,477.4l-1.9,1.8l-50.4-31.1l2.3-1.6L77.2,477.4z M89.3,465.3l-1.8,1.9L40,437.8l2.3-1.6L89.3,465.3z
		 M101.3,453.3l-1.9,1.8l-44.8-27.6L57,426L101.3,453.3z M113.4,441.2l-1.9,1.8l-41.8-25.8l2.3-1.5L113.4,441.2z M125.5,429.1
		l-1.8,1.9l-39-24.1l2.3-1.6L125.5,429.1z M137.5,417.1l-1.9,1.8l-36.1-22.3l2.3-1.6L137.5,417.1z M149.5,405.1l-1.9,1.8l-33.2-20.5
		l2.3-1.6L149.5,405.1z M161.6,393l-1.8,1.9l-30.4-18.7l2.3-1.6L161.6,393z M173.7,380.9l-1.9,1.8l-27.6-17l2.3-1.6L173.7,380.9z
		 M187.1,369.8l-2.1,1.7l-25.8-15.9l2.3-1.6L187.1,369.8z M201,358.8l-2.1,1.7l-29.2-18c0.4-0.7,0.8-1.5,1.2-2.3L201,358.8z"/>
	<path class="st9" d="M423.6,144.7c9.4-3.9,15.8-6.6,21.7-12.8c0,0,20.8-4.2,33.2,10.3l-37.1,11.2
		C436.7,148.9,431.4,145,423.6,144.7L423.6,144.7z"/>
	<path class="st10" d="M333.4,287c-34.5,35.9-94.6,63.8-197,66c66.8-78,131.3-164.3,183.4-181.4C374.7,195.5,371.7,247.1,333.4,287z
		"/>
	<path class="st6" d="M333.4,287c-34.5,35.9-94.6,63.8-197,66c9.1-10.5,18-21.3,27-31.9c88.5-5.6,142.2-31.9,174-65
		c11.1-11.5,19.1-24,23.8-36.5C364.1,241.4,353.8,265.9,333.4,287z"/>
	<path class="st9" d="M402.3,252.2c-10.2-16.2,0.6-35.7-6.9-64.7c-2.8-11-8.5-21.6-17.4-28.6c-11.3-9-23.3-10.1-37-22.8l-10.5-23.6
		c2.7-1,5.2-1.8,7.7-2.6c5.4,25.2,36.6,24.6,52.7,39.4c15,13.9,16.1,36.5,21.6,75.2C410.1,232.8,406.8,242.2,402.3,252.2
		L402.3,252.2z"/>
	<path class="st9" d="M376.5,150c-0.2-1,0.5-1.9,1.6-2l0,0l71.7-10.1c1-0.1,1.9,0.6,2,1.6c0.1,0.9-0.6,1.8-1.5,2l-71.7,10.1
		C377.5,151.7,376.7,151,376.5,150L376.5,150L376.5,150z"/>
	
		<ellipse transform="matrix(0.3116 -0.9502 0.9502 0.3116 147.1284 491.6665)" class="st9" cx="412.9" cy="144.3" rx="8.6" ry="8.6"/>
	<circle class="st11" cx="412.9" cy="144.3" r="5.5"/>
	<path class="st12" d="M418.1,146c-1,2.9-4.1,4.5-7,3.5c-4.8-1.6-5-8-0.9-10.1c-1.3,4.7,3.8,8.7,8,6.3
		C418.2,145.8,418.2,145.9,418.1,146z"/>
	<ellipse transform="matrix(0.3116 -0.9502 0.9502 0.3116 147.1283 491.6664)" class="st2" cx="412.9" cy="144.3" rx="3" ry="3"/>
	<path class="st13" d="M412.4,143.6c-1.3-0.4-0.7-2.5,0.7-2C414.4,142,413.8,144.1,412.4,143.6z"/>
	<path class="st8" d="M314.3,221.1c-0.6,0.5-1.8,2.3-4.7,3.7c-8.6,4.4-17.1-3.3-14.6-13.9c0.7-2.5,1.6-3.6,1.6-3.6
		c0.1,0.4-0.5,22,16.2,14.6L314.3,221.1z M264.9,241.9c-0.4,0.1-1.9,1-4.6,0.8c-2.8,0-7-1.8-9-5.5c-2-3.6-1.3-7-0.5-8.9
		s1.8-2.6,1.8-2.6s-0.1,1.2,0,2.9c0.4,5.4,3,10.2,8.1,12.2C263,241.9,264.9,241.9,264.9,241.9L264.9,241.9z M339.7,218.5
		c0,0-0.3,0.5-0.9,1.4c-7.6,10.6-20.2,4.5-19.2-8.3c0.3-2.6,0.9-3.7,0.9-3.7c0.3,0.4,3,21.9,17.9,11.7L339.7,218.5z M320.5,195.4
		c0,0-0.3,0.5-0.9,1.4c-7.7,10.6-20.1,4.3-19.2-8.3c0.3-2.6,0.9-3.7,0.9-3.7s0.2,1.4,0.9,3.6c3.2,10.2,8.4,14,17,8L320.5,195.4
		L320.5,195.4z M359.1,240.9c-0.3,0.3-3.6,6.7-9.9,6.8c-5.3,0.1-10.9-4.9-10.3-13.7c0.3-2.6,0.9-3.7,0.9-3.7
		c0.4,0.4,3,21.9,17.9,11.7L359.1,240.9L359.1,240.9z M317.5,245.8c0,0-0.3,0.6-0.9,1.7c-5.2,8.5-13.3,9.2-18.5,4.6
		c-3.4-3-5.2-7.6-5.3-12.1c-0.1-3.1,0.5-4.6,0.5-4.6c0.8,2.3,2.3,9.3,7.3,13.8c1.7,1.4,3.8,2.4,6,2.5c2.1,0.1,4.3-0.7,5.9-1.7
		C315,248.4,316.8,246.5,317.5,245.8L317.5,245.8z M348.9,207.4c0,0-0.4,0.4-1.1,1.1c-9.8,8.6-20.7-0.3-16.8-12.5
		c0.9-2.4,1.8-3.4,1.8-3.4s-0.1,1.4,0,3.8C334.1,216.3,348.3,207.3,348.9,207.4L348.9,207.4z M328.2,186.1c-0.4,0.4-1.4,1.6-3.4,2.5
		c-6.3,3-12-3.1-9.6-10.7c0.6-1.8,1.3-2.5,1.3-2.5s0,1,0,2.7C317.5,192.6,327.7,186.1,328.2,186.1L328.2,186.1z M283,227.3
		c-0.5,0.4-1.9,2-4.7,3.1c-5,2-9.7,0-11.8-4.3c-2.1-4.6-0.9-8.4-0.1-10.6c0.9-2.3,1.9-3.1,1.9-3.1c0.2,0.5-3.1,20.6,13.1,15.4
		L283,227.3L283,227.3z M359,223.5c0,0-0.2,0.3-0.5,0.8c-4.6,6.5-12.4,2.3-11.3-5.3c0.3-1.5,0.8-2.2,0.8-2.2
		c0.6,1.9,1.1,4.7,2.9,6.8c2.1,2.4,4.6,1.9,7.3,0.3L359,223.5L359,223.5z M340.6,261c-0.4,0.5-1.1,2-3.1,3.6
		c-6.1,4.8-14.2-0.5-12.9-9.6c0.4-2,1.1-3,1.1-3c0.7,0.9,2.2,16.4,13.8,9.6L340.6,261L340.6,261z M332.9,280.9c0,0-0.2,0.3-0.6,0.9
		c-5,7.1-13.5,2.5-12.3-5.7c0.3-1.7,0.9-2.4,0.9-2.4s0.2,0.9,0.6,2.3c2,6.2,4.8,8.8,10.5,5.5L332.9,280.9L332.9,280.9z M331,236.3
		c-0.4,0.5-1.1,2-3.1,3.6c-6.2,4.8-14.2-0.6-12.9-9.6c0.4-2,1.1-2.9,1.1-2.9s0.2,1.1,0.8,2.8c2.6,7.7,6,10.8,13,6.8L331,236.3
		L331,236.3z M243.3,273c-0.6,0.5-1.8,2.3-4.7,3.7c-8.9,4.6-17-3.5-14.6-13.9c0.7-2.5,1.6-3.6,1.6-3.6s0,1.4,0.3,3.7
		c1.4,10.4,6.3,15.2,15.9,10.8L243.3,273z M210.6,294.2c-0.4,0.1-1.4,0.9-3.5,1.1c-2.2,0.2-5.6-0.6-7.6-3.2
		c-1.9-2.5-2.3-5.9-0.9-8.6l0.4-0.5c0,0,0,0.9,0.2,2.2c0.9,4.6,4,7.9,8,8.7C209,294.4,210.6,294.2,210.6,294.2z M271.8,270.4
		c0,0-0.3,0.5-0.9,1.4c-7.6,10.7-20.1,4.4-19.2-8.3c0.3-2.6,0.9-3.7,0.9-3.7s0.2,1.4,0.9,3.6c3.2,10.2,8.5,14,17,8L271.8,270.4
		L271.8,270.4z M251.8,251.2c-0.4,0.5-1,1.9-2.9,3.4c-5.6,4.5-12.8-0.2-12.2-8.6c0.2-1.9,0.7-2.8,0.7-2.8c0.6,2.1,1.2,6,3.8,8.9
		c2.9,3,6.3,2.2,9.7-0.2L251.8,251.2L251.8,251.2z M286,289.8c-0.3,0.5-0.8,2-2.6,3.5c-5.7,4.9-13.4-0.3-12.2-8.5
		c0.3-1.9,0.9-2.8,0.9-2.8c0.7,2,1.7,5.8,4.1,8.3c2.4,2.9,5.7,2.1,9,0.2L286,289.8z M302.1,304.5c-0.3,0.5-0.8,2-2.6,3.5
		c-5.6,4.8-13.3-0.1-12.2-8.5c0.3-1.9,0.9-2.8,0.9-2.8c0.5,0.6,2.8,12.7,10.4,9.7C300.3,305.8,301.7,304.8,302.1,304.5z
		 M286.5,315.3c0,0-0.1,0.3-0.4,0.7c-3.5,5.5-10.1,2.3-9.3-3.9c0.2-1.2,0.6-1.8,0.6-1.8c0.4,1.3,1.1,3.7,2.6,5.4
		c1.6,1.8,3.7,1.3,5.8,0.1L286.5,315.3L286.5,315.3z M320.9,270.2c-0.3,0.5-1,2-2.8,3.6c-1.1,0.9-2.7,1.9-4.7,1.9
		c-4.3,0.2-8.8-4.1-8-10.8c0.3-2,0.9-2.8,0.9-2.8c0.8,2.1,1.7,6.1,4.1,8.7c1.9,2.1,4.1,2.4,6.7,1.4
		C319,271.6,320.4,270.6,320.9,270.2z M241,297.8c-0.5,0.4-1.7,2-4.3,3.1c-6.3,3-12.5-1.2-12.8-8.8c-0.1-4.5,1.8-7,1.9-7.3
		c0,0-0.1,1.2,0,3.3C227.1,306.6,240.6,297.9,241,297.8L241,297.8z M287.6,251.7c-0.4,0.6-1.4,2.6-3.8,4.5
		c-7.5,5.9-17.1-0.2-16.3-11.4c0.3-2.6,0.9-3.7,0.9-3.7c0.3,0.3,3,22,17.9,11.7L287.6,251.7z M220.4,281.2c-0.4,0.3-1.4,1.4-3.3,2.2
		c-6.2,2.5-11.1-3.7-8.3-10.6c0.7-1.5,1.4-2.2,1.4-2.2c0,2-0.4,5.5,1,8.6c1.7,3.3,4.8,3.4,8.3,2.3L220.4,281.2z M276.2,306.4
		c-0.4,0.4-1.5,1.6-3.7,2.4c-6.7,2.7-12.3-3.8-9.2-11.7c0.8-1.7,1.5-2.5,1.5-2.5c0.3,0.4-2.5,16.2,10.3,12.1L276.2,306.4
		L276.2,306.4z M299.7,274.9c-0.4,0.5-1.1,2.1-3.1,3.6c-6.3,4.9-14.2-0.8-12.9-9.6c0.4-2,1.1-3,1.1-3s0.2,1.1,0.8,2.8
		c2.5,7.6,6,10.9,13,6.8L299.7,274.9L299.7,274.9z M208.1,323c-0.4,0.4-1.3,1.5-3.3,2.5c-6.2,3-12-3.3-9.1-10.7
		c0.7-1.6,1.4-2.3,1.4-2.3s0,1,0.1,2.6c0.7,7,3,10.4,9.8,8.2L208.1,323L208.1,323z M198.1,302.6c0,0-0.2,0.2-0.4,0.7
		c-0.4,0.7-1,1.2-1.6,1.8c-4.2,3.2-9.6-0.5-8.7-6.5c0.3-1.4,0.8-2,0.8-2s0.2,0.7,0.5,1.9c1.7,5.1,4,7.3,8.7,4.5L198.1,302.6
		L198.1,302.6z M188.5,318.8c0,0-0.3,0.2-0.8,0.6c-6.6,5.2-13.3-1.4-9.8-8.8c0.8-1.4,1.4-2,1.4-2s-0.1,0.9-0.1,2.3
		c0.2,6.3,2,9.5,8.3,8L188.5,318.8L188.5,318.8z M179.8,328.7c0,0-0.2,0.3-0.5,0.9c-4.7,7.1-13.5,2.5-12-5.6c0.3-1.7,1-2.3,1-2.3
		l0.7,2.2c2.2,5.9,4.6,8.3,10.1,5.3L179.8,328.7z M169.9,340.7c0,0-0.2,0.3-0.5,0.8c-4.6,6.6-12.7,2.3-11.5-5.4
		c0.3-1.6,0.8-2.2,0.8-2.2c0.5,1.2,1.6,7.6,5.4,8.5c1.6,0.4,3.6-0.4,5-1.2L169.9,340.7L169.9,340.7z M220.1,309.5
		c-0.4,0.5-1.1,2.1-3.1,3.6c-6.3,4.9-14.2-0.8-12.9-9.6c0.4-2,1.1-3,1.1-3c0.8,2.5,1.5,6.3,3.9,9.3c2.8,3.2,6.2,2.5,9.8,0.4
		L220.1,309.5L220.1,309.5z M263.1,288.1c-0.4,0.5-1.1,2-3.1,3.6c-6.1,4.8-14.2-0.5-12.9-9.6c0.4-2,1.1-2.9,1.1-2.9s0.2,1.1,0.8,2.8
		c2.6,7.7,6,10.8,13,6.8L263.1,288.1L263.1,288.1z M289,211.7c-0.4,0.1-1.4,0.8-3.5,0.8c-2.2,0.1-5.5-1.2-7.1-4.1
		c-1.5-2.9-0.9-5.5-0.2-6.9c0.8-1.4,1.6-1.8,1.6-1.8c0.1,0.4,0,8.2,6.1,11.1C287.5,211.7,289,211.7,289,211.7L289,211.7z M240,318.4
		c0,0-0.3,0.2-0.8,0.6c-6.6,5.2-13.3-1.5-9.8-8.7c0.8-1.4,1.4-2,1.4-2c0,2.1-0.3,5.1,0.9,7.9c1.4,3,4.1,3.3,7.3,2.5L240,318.4
		L240,318.4z M200.7,333.6c0,0-0.2,0.3-0.5,0.8c-4.6,6.6-12.7,2.3-11.5-5.4c0.3-1.6,0.8-2.2,0.8-2.2c0.5,1.2,1.6,7.6,5.4,8.5
		c1.6,0.4,3.6-0.4,5-1.2L200.7,333.6L200.7,333.6z M230.9,326.3c0,0-0.2,0.3-0.6,0.8c-4.6,6.6-12.7,2.4-11.5-5.4
		c0.3-1.6,0.8-2.2,0.8-2.2c0.6,2,1.1,4.8,3,7c2.1,2.4,4.7,1.9,7.5,0.3L230.9,326.3L230.9,326.3z M221.1,335.6c0,0-0.2,0.3-0.5,0.8
		c-4.6,6.6-12.7,2.3-11.5-5.4c0.3-1.6,0.8-2.2,0.8-2.2c0.5,1.9,1.1,4.8,3,7c2.1,2.4,4.7,1.9,7.5,0.3L221.1,335.6L221.1,335.6z
		 M191.1,342.3c0,0-0.2,0.3-0.5,0.8c-4.6,6.6-12.7,2.3-11.5-5.4c0.3-1.6,0.8-2.2,0.8-2.2c0.5,1.2,1.6,7.6,5.4,8.5
		c1.6,0.4,3.6-0.4,5-1.2L191.1,342.3L191.1,342.3z M266,318c-0.5,0.4-1.7,2-4.3,3.1c-6.4,3.1-12.5-1.3-12.8-8.8
		c-0.1-4.5,1.8-7,1.9-7.3c0,0-0.1,1.2,0,3.3C252.1,326.9,265.6,318,266,318z M315.8,293c-0.5,0.4-1.7,2-4.3,3.1
		c-6.3,3-12.5-1.2-12.8-8.8c-0.1-4.5,1.8-7,1.9-7.3c0,0-0.1,1.2,0,3.3c0.6,9.6,4.9,14.4,13.8,10.3L315.8,293L315.8,293z"/>
	<path class="st5" d="M386.4,242L386.4,242c-0.4-0.1-0.7-0.6-0.4-1l0.9-2.3c0.4-0.9,1.8-0.4,1.5,0.6l-0.9,2.3
		C387.2,242,386.8,242.2,386.4,242z M380.3,244c-1.1-0.3-0.2-1.7,0-2.7c0.1-0.4,0.5-0.7,1-0.6c1.2,0.3,0.2,1.7,0.1,2.7
		C381.3,243.8,380.8,244,380.3,244L380.3,244z M378,234.8c-0.4-0.1-0.6-0.5-0.5-0.9l0.4-1.5c0.2-1,1.8-0.6,1.5,0.4l-0.4,1.5
		C378.8,234.6,378.5,234.9,378,234.8L378,234.8L378,234.8z M373.7,242.8l0.7-2.1c0.3-1,1.8-0.5,1.5,0.5l-0.7,2.1
		C374.8,244.2,373.4,243.8,373.7,242.8z M371.1,235.1l0.7-2.1c0.3-1,1.8-0.5,1.5,0.5l-0.7,2.1C372.3,236.6,370.8,236.1,371.1,235.1z
		 M363.1,245.9l0.8-2.6c0.3-1,1.8-0.5,1.5,0.5l-0.8,2.6C364.2,247.3,362.7,246.9,363.1,245.9z M364.6,238.4l0.8-2.6
		c0.3-1,1.8-0.5,1.5,0.5l-0.8,2.6C365.8,239.9,364.3,239.4,364.6,238.4L364.6,238.4z M366.9,247.3c0.2-0.3,0.3-1.8,1.3-1.5
		c1.1,0.3,0.3,1.6,0.2,1.9C368.3,248.3,366.6,248.3,366.9,247.3L366.9,247.3z M370,253.2c0.2-0.3,0.3-1.8,1.3-1.5s0.3,1.6,0.2,1.9
		C371.1,254.6,369.7,254.2,370,253.2L370,253.2z M358.2,253.4c0.2-0.3,0.3-1.8,1.3-1.5c1.1,0.3,0.3,1.6,0.2,1.9
		C359.6,254.2,357.9,254.3,358.2,253.4L358.2,253.4z M359.2,261.9l1.1-1.1c0.6-0.8,1.9,0.2,1.1,1.1l-1.1,1.1
		C359.7,263.8,358.5,262.7,359.2,261.9L359.2,261.9z M368.6,278.7l2.6-2.3c0.3-0.3,0.8-0.3,1.1,0c0.3,0.3,0.3,0.8,0,1.1
		c0,0,0,0.1-0.1,0.1l-2.6,2.3C368.9,280.6,367.8,279.4,368.6,278.7z M367.1,266.4l2.2-2c0.8-0.7,1.8,0.5,1,1.1l-2.2,2
		C367.3,268.2,366.3,267,367.1,266.4z M353.9,273.6l2.1-1.4c0.9-0.5,1.7,0.8,0.8,1.4l-2.1,1.4C353.8,275.4,353,274.1,353.9,273.6
		L353.9,273.6z M357.8,281.3l1.9-1.3c0.9-0.5,1.7,0.8,0.8,1.4l-1.9,1.3C357.8,283.1,357,281.8,357.8,281.3L357.8,281.3z M338,308.3
		l1.4-1c0.8-0.6,1.7,0.7,1,1.3l-1.4,1C338,310.2,337.2,308.9,338,308.3L338,308.3z M336.4,321.7l1.9-2.8c0.6-0.9,1.9,0,1.3,0.9
		l-1.9,2.8C337.2,323.4,335.9,322.5,336.4,321.7L336.4,321.7z M331.5,318.6l1.5-2.4c0.6-0.9,1.9-0.1,1.3,0.8l-1.5,2.4
		C332.4,320.3,331,319.5,331.5,318.6z M332.5,331.2l0.6-2c0.1-0.4,0.5-0.7,1-0.6c0.4,0.1,0.7,0.5,0.6,1l0,0.1l-0.6,2
		C333.6,332.6,332.2,332.2,332.5,331.2L332.5,331.2z M348.8,292.1l0.5-1.6c0.3-1,1.8-0.5,1.5,0.5l-0.5,1.6
		C350,293.5,348.5,293,348.8,292.1z M355.2,299.1c-0.4-0.2-0.6-0.7-0.4-1l1.3-2.6c0.2-0.4,0.7-0.6,1-0.4c0.4,0.2,0.6,0.7,0.4,1l0,0
		l-1.3,2.6C356.1,299.1,355.6,299.2,355.2,299.1L355.2,299.1z M349.4,306.9c-0.3-0.3-0.3-0.8,0-1.1l1.1-1.1c0.6-0.8,1.9,0.2,1.1,1.1
		l-1.1,1.1C350.2,307.2,349.7,307.2,349.4,306.9L349.4,306.9z M342.8,305.2c-0.3-0.2-0.4-0.7-0.2-1l2.1-2.9c0.6-0.9,1.9,0,1.3,0.9
		L344,305C343.7,305.3,343.2,305.4,342.8,305.2L342.8,305.2z M361.1,289c0.2-0.4,0.3-2.1,1.4-1.7c1.1,0.3,0.2,1.6,0.1,2.2
		C362.5,290,360.8,290,361.1,289L361.1,289z M326.9,329.1L326.9,329.1c-0.4-0.1-0.7-0.6-0.4-1l0,0l1.5-3.8c0.4-0.9,1.8-0.4,1.5,0.6
		l-1.5,3.8C327.7,329,327.3,329.2,326.9,329.1L326.9,329.1z M355.1,288.6c-0.7-0.7,0.4-1.5,0.6-1.8c0.7-0.7,1.9,0.3,1.1,1.1
		l-0.6,0.7C355.9,289,355.4,288.9,355.1,288.6L355.1,288.6L355.1,288.6z M354.9,266.1l1.2-1.6c0.6-0.8,1.8,0.1,1.3,0.9l-1.2,1.6
		C355.7,267.9,354.4,266.9,354.9,266.1z M326.3,336.6l1.2-2.5c0.5-0.9,1.8-0.2,1.3,0.7l-1.2,2.5
		C327.3,338.2,325.8,337.5,326.3,336.6z M361,271.9c0.2-2,3-2.6,3.1-1.3c0,0.4-0.4,0.8-0.7,0.7c-0.3,0-0.7,0.3-0.7,0.6
		C362.4,273,360.9,272.9,361,271.9z M393.7,247.9c-0.4-0.1-0.6-0.5-0.5-0.9l0.4-1.5c0.1-0.4,0.5-0.7,1-0.6c1.1,0.3,0.2,1.7,0.2,2.4
		C394.6,247.8,394.1,248,393.7,247.9L393.7,247.9z M389.4,255.9l0.7-2.1c0.3-1,1.8-0.5,1.5,0.5l-0.7,2.1
		C390.6,257.4,389.1,256.9,389.4,255.9L389.4,255.9z M386.9,248.3l0.7-2.1c0.3-1,1.8-0.5,1.5,0.5l-0.7,2.1
		C388,249.7,386.5,249.3,386.9,248.3z M373.8,258l0.8-2.6c0.3-1,1.8-0.5,1.5,0.5l-0.8,2.6C374.9,259.4,373.4,258.9,373.8,258
		L373.8,258z M380.4,251.6l0.8-2.6c0.3-1,1.8-0.5,1.5,0.5l-0.8,2.6C381.5,253,380.1,252.5,380.4,251.6z M382.6,260.6
		c0.2-0.3,0.3-1.8,1.3-1.5c1.1,0.3,0.3,1.6,0.2,1.9C383.9,261.4,382.3,261.5,382.6,260.6L382.6,260.6z M386.2,267.2
		c-1.1-0.3-0.3-1.6-0.2-1.9c0.1-0.4,0.6-0.6,0.9-0.5c0.4,0.1,0.6,0.6,0.5,0.9l-0.3,1C387.1,267.1,386.6,267.4,386.2,267.2
		L386.2,267.2z M380.8,265.7c0.2-0.3,0.3-1.8,1.3-1.5c1.1,0.3,0.3,1.6,0.2,1.9C382.1,266.5,380.4,266.6,380.8,265.7L380.8,265.7z
		 M374.1,264.1c0.2-0.3,0.3-1.8,1.3-1.5c1.1,0.3,0.3,1.6,0.2,1.9C375.5,265,373.8,265,374.1,264.1L374.1,264.1z M375.1,273.8
		c-0.3-0.3-0.3-0.8,0-1.1l1.1-1.1c0.6-0.8,1.9,0.2,1.1,1.1l-1.1,1.1C375.9,274.1,375.4,274.1,375.1,273.8L375.1,273.8z M381.8,271.9
		c-0.4-0.1-0.6-0.6-0.5-0.9c0-0.1,0.1-0.3,0.2-0.3l1-0.9c0.3-0.3,0.8-0.2,1.1,0.1c0.3,0.3,0.2,0.8-0.1,1.1l-1,0.9
		C382.3,272,382,272,381.8,271.9L381.8,271.9z M370.4,285.4c-0.4-0.1-0.6-0.6-0.5-0.9c0.1-0.2,0.2-0.3,0.3-0.4l1.2-0.8
		c0.4-0.2,0.8-0.1,1.1,0.3c0.2,0.4,0.1,0.8-0.2,1l-1.2,0.8C370.8,285.4,370.6,285.4,370.4,285.4z M360.4,299.1
		c-0.4-0.1-0.6-0.6-0.5-0.9c0-0.1,0.1-0.2,0.1-0.2l1.9-2.8c0.2-0.3,0.7-0.4,1.1-0.2c0.3,0.2,0.4,0.7,0.2,1.1l0,0l-1.9,2.8
		C361.1,299,360.7,299.2,360.4,299.1L360.4,299.1z M349.9,299.5l-0.7-0.2l0.4-0.9c0.4-0.9,1.8-0.4,1.5,0.6l-0.4,0.8L349.9,299.5z
		 M369,273.5c-0.9-0.7,0.3-1.6,0.4-1.9c0.6-0.8,1.8,0.1,1.3,0.9l-0.6,0.8C369.9,273.7,369.4,273.7,369,273.5L369,273.5z
		 M350.8,312.3c-0.4-0.2-0.6-0.7-0.3-1.1l0,0l0.4-0.8c0.5-0.9,1.8-0.2,1.3,0.7l-0.4,0.8C351.7,312.3,351.3,312.4,350.8,312.3z
		 M379.5,278.4c-0.4-0.1-0.5-0.5-0.5-0.8c0.1-1.2,1.1-2,2.2-2c0.4,0,0.8,0.4,0.7,0.7c0,0.4-0.4,0.8-0.7,0.7c-0.3,0-0.6,0.3-0.7,0.6
		c0,0.4-0.4,0.7-0.8,0.7C379.6,278.5,379.5,278.4,379.5,278.4z M353.6,291.7l0.4-0.7c0.5-0.9,1.9-0.1,1.3,0.8l-0.4,0.7
		C354.4,293.4,353.1,292.6,353.6,291.7z M362.9,281.1l0.8-0.5c0.8-0.6,1.7,0.7,1,1.3l-0.8,0.5C363,283,362.1,281.8,362.9,281.1
		L362.9,281.1z M368.3,294.2c-0.4-0.1-0.6-0.6-0.5-0.9l0.5-1.6c0.1-0.4,0.6-0.6,0.9-0.5c0.4,0.1,0.6,0.6,0.5,0.9l0,0l-0.5,1.6
		C369.1,294.2,368.7,294.4,368.3,294.2L368.3,294.2z M353.9,303.1l0.6-1.7c0.1-0.4,0.6-0.6,0.9-0.5c0.4,0.1,0.6,0.6,0.5,0.9l0,0
		l-0.6,1.7C355,304.5,353.6,304.1,353.9,303.1L353.9,303.1z M364.7,258.2c0.2-0.3,0.3-1.8,1.3-1.5c1.1,0.3,0.3,1.6,0.2,1.9
		C366,259.1,364.4,259.2,364.7,258.2L364.7,258.2z"/>
</g>
</svg>
