<?xml version="1.0" encoding="utf-8"?>
<!-- Generator: Adobe Illustrator 24.3.0, SVG Export Plug-In . SVG Version: 6.00 Build 0)  -->
<svg version="1.1" id="Layer_1" xmlns="http://www.w3.org/2000/svg" xmlns:xlink="http://www.w3.org/1999/xlink" x="0px" y="0px"
	 viewBox="0 0 512 512" style="enable-background:new 0 0 512 512;" xml:space="preserve">
<style type="text/css">
	.st0{fill:#112827;}
	.st1{fill:#535B72;}
	.st2{fill:#4B5267;}
	.st3{fill:#AFBCB8;}
	.st4{fill:#1BCC73;}
	.st5{fill:#36E88F;}
	.st6{fill:#4AFFA8;}
	.st7{fill:#3A4050;}
	.st8{fill:#6C7694;}
	.st9{fill:#A5ABBD;}
	.st10{fill:#5C647E;}
	.st11{fill:#78819C;stroke:#000000;stroke-miterlimit:10;}
	.st12{fill:#4B5267;stroke:#000000;stroke-miterlimit:10;}
	.st13{fill:#F5BE41;}
	.st14{fill:#9AA1B5;}
	.st15{fill:none;stroke:#78819C;stroke-width:5;stroke-miterlimit:10;}
	.st16{fill:#312C2C;}
	.st17{fill:#CDD1F9;}
	.st18{fill:#B6BCEF;}
	.st19{fill:#7C80C1;}
	.st20{fill:#424699;}
	.st21{fill:#5562AD;}
	.st22{fill:#252F8C;}
	.st23{fill:#241A22;}
	.st24{fill:#5354A6;}
	.st25{fill:#F9B46F;}
	.st26{fill:#F99B39;}
	.st27{fill:#FFFFFF;}
	.st28{fill:#535454;}
	.st29{fill:#444443;}
	.st30{fill:#646D89;}
	.st31{fill:#6A96DD;}
	.st32{fill:#EFEFEF;}
	.st33{fill:#6AB620;}
	.st34{fill:#898989;}
	.st35{fill:#F94A46;}
	.st36{fill:#DDA36F;}
	.st37{fill:#F9D698;}
	.st38{fill:#FFB70D;}
	.st39{fill:#DEE2E5;}
	.st40{fill:#455A64;}
</style>
<g>
	<path class="st0" d="M367.3,341.6c0,2.5-1.3,4-3.8,4h-97.3c-2.5,0-3.8-1.5-3.8-4v-4.4c0-2.5,1.3-4.2,3.8-4.2h97.3
		c2.5,0,3.8,1.7,3.8,4.2V341.6z"/>
	<path class="st1" d="M377.7,336c0,2.5-3.1,5.5-5.5,5.5H257.4c-2.3,0-5.5-2.9-5.5-5.5v-29.6c0-2.5,3.1-4.8,5.5-4.8h114.9
		c2.3,0,5.5,2.3,5.5,4.8L377.7,336L377.7,336z"/>
	<path class="st2" d="M252,306.4c0-2.5,3.1-4.8,5.5-4.8h114.9c2.3,0,5.5,2.3,5.5,4.8V336c0,2.5-3.1,5.5-5.5,5.5"/>
	<g>
		<path class="st0" d="M264.5,327.6c0,0.4-0.6,0.8-1,0.8s-1-0.4-1-0.8v-13c0-0.4,0.6-0.8,1-0.8s1,0.4,1,0.8V327.6z M270.8,327.6
			c0,0.4-0.6,0.8-1,0.8s-1-0.4-1-0.8v-13c0-0.4,0.6-0.8,1-0.8s1,0.4,1,0.8V327.6z M277.1,327.6c0,0.4-0.6,0.8-1,0.8s-1-0.4-1-0.8
			v-13c0-0.4,0.6-0.8,1-0.8s1,0.4,1,0.8V327.6z"/>
	</g>
	<g>
		<path class="st3" d="M348.4,321.5c0,0.6-0.4,1-1,1h-62.9c-0.6,0-1-0.4-1-1s0.4-1,1-1h62.7C348,320.4,348.4,320.9,348.4,321.5z"/>
		<circle class="st3" cx="348" cy="321.1" r="6.5"/>
	</g>
	<circle class="st4" cx="348" cy="321.1" r="3.1"/>
	<path class="st5" d="M350.1,323.4c-1.3,1.3-3.1,1.3-4.4,0s-1.3-3.1,0-4.4"/>
	<path class="st6" d="M367,321.1c0,1.7-1.5,3.1-3.1,3.1s-3.1-1.5-3.1-3.1s1.5-3.1,3.1-3.1S367,319.4,367,321.1z"/>
	<path class="st5" d="M366,323.4c-1.3,1.3-3.1,1.3-4.4,0s-1.3-3.1,0-4.4"/>
	<path class="st0" d="M367.3,384.2c0,2.5-1.3,5.5-3.8,5.5h-97.3c-2.5,0-3.8-2.9-3.8-5.5v-4.4c0-2.5,1.3-4.8,3.8-4.8h97.3
		c2.5,0,3.8,2.3,3.8,4.8V384.2z"/>
	<path class="st1" d="M377.7,378.5c0,2.5-3.1,4.8-5.5,4.8H257.4c-2.3,0-5.5-2.3-5.5-4.8v-29.6c0-2.5,3.1-5.5,5.5-5.5h114.9
		c2.5,0,5.5,2.9,5.5,5.5L377.7,378.5L377.7,378.5z"/>
	<path class="st2" d="M252,348.9c0-2.5,3.1-5.5,5.5-5.5h114.9c2.5,0,5.5,2.9,5.5,5.5v29.6c0,2.5-3.1,4.8-5.5,4.8"/>
	<g>
		<path class="st0" d="M264.5,370.1c0,0.4-0.6,0.8-1,0.8c-0.4,0.2-1-0.2-1-0.8v-13c0-0.4,0.6-0.8,1-0.8s1,0.4,1,0.8V370.1z
			 M270.8,369.9c0,0.4-0.4,0.8-0.8,0.8h-0.2c-0.4,0-0.8-0.4-0.8-0.8v-12.8c0-0.4,0.4-0.8,0.8-0.8h0.2c0.4,0,0.8,0.4,0.8,0.8V369.9z
			 M277.1,369.9c0,0.4-0.4,0.8-0.8,0.8h-0.2c-0.4,0-0.8-0.4-0.8-0.8v-12.8c0-0.4,0.4-0.8,0.8-0.8h0.2c0.4,0,0.8,0.4,0.8,0.8V369.9z"
			/>
	</g>
	<g>
		<path class="st3" d="M347.8,363.4c0,0.6-0.4,1-1,1h-62.3c-0.6,0-1-0.4-1-1s0.4-1,1-1h62.3C347.3,362.4,347.8,362.8,347.8,363.4z"
			/>
		<circle class="st3" cx="348" cy="363.6" r="6.5"/>
	</g>
	<circle class="st4" cx="348" cy="363.6" r="3.1"/>
	<path class="st5" d="M350.1,365.9c-1.3,1.3-3.1,1.3-4.4,0s-1.3-3.1,0-4.4"/>
	<path class="st6" d="M367,363.6c0,1.7-1.5,3.1-3.1,3.1s-3.1-1.5-3.1-3.1c0-1.7,1.5-3.1,3.1-3.1S367,361.9,367,363.6z"/>
	<path class="st5" d="M366,365.9c-1.3,1.3-3.1,1.3-4.4,0s-1.3-3.1,0-4.4"/>
	<path class="st0" d="M367.3,426.7c0,2.5-1.3,4.8-3.8,4.8h-97.3c-2.5,0-3.8-2.3-3.8-4.8v-4.4c0-2.3,1.3-3.4,3.8-3.4h97.3
		c2.5,0,3.8,1,3.8,3.4V426.7z"/>
	<path class="st1" d="M377.7,421.1c0,2.5-3.1,4.2-5.5,4.2H257.4c-2.3,0-5.5-1.7-5.5-4.2v-29.6c0-2.5,3.1-4,5.5-4h114.9
		c2.5,0,5.5,1.5,5.5,4L377.7,421.1L377.7,421.1z"/>
	<path class="st2" d="M252,391.5c0-2.5,3.1-4,5.5-4h114.9c2.5,0,5.5,1.5,5.5,4v29.6c0,2.5-3.1,4.2-5.5,4.2"/>
	<g>
		<path class="st0" d="M264.5,412.7c0,0.4-0.6,0.8-1,0.8c-0.4,0.2-1-0.2-1-0.8v-13c0-0.4,0.6-0.8,1-0.8s1,0.4,1,0.8V412.7z
			 M270.8,412.7c0,0.4-0.6,0.8-1,0.8s-1-0.4-1-0.8v-13c0-0.4,0.6-0.8,1-0.8s1,0.4,1,0.8V412.7z M277.1,412.7c0,0.4-0.6,0.8-1,0.8
			s-1-0.4-1-0.8v-13c0-0.4,0.6-0.8,1-0.8s1,0.4,1,0.8V412.7z"/>
	</g>
	<g>
		<path class="st3" d="M348.4,405.3c0,0.6-0.4,1-1,1h-62.9c-0.6,0-1-0.4-1-1s0.4-1,1-1h62.7C348,404.3,348.4,404.7,348.4,405.3z"/>
		<circle class="st3" cx="348" cy="406.2" r="6.5"/>
	</g>
	<circle class="st4" cx="348" cy="406.2" r="3.1"/>
	<path class="st5" d="M350.1,408.5c-1.3,1.3-3.1,1.3-4.4,0s-1.3-3.1,0-4.4"/>
	<path class="st6" d="M367,406.2c0,1.7-1.5,3.1-3.1,3.1s-3.1-1.5-3.1-3.1s1.5-3.1,3.1-3.1S367,404.5,367,406.2z"/>
	<path class="st5" d="M366,408.5c-1.3,1.3-3.1,1.3-4.4,0s-1.3-3.1,0-4.4"/>
</g>
<path class="st7" d="M336,189.1H9.7c-5.3,0-9.7,4.3-9.7,9.7v176.9L169.8,400l175.9-24.3v-177C345.6,193.4,341.3,189.1,336,189.1z"/>
<path class="st1" d="M203.6,403.5l7.2,59.8h-76l7.2-59.8H203.6z"/>
<path class="st7" d="M208.4,443.2l-4.8-39.7h-61.5l-4.8,39.7H208.4z"/>
<path class="st8" d="M99.1,375.6H0v23.1c0,5.3,4.3,9.7,9.7,9.7H336c5.3,0,9.7-4.3,9.7-9.7v-23.1H99.1z"/>
<path class="st9" d="M237.8,467.1h-130c-2.8,0-5.1-2.3-5.1-5.1s2.3-5.1,5.1-5.1h130c2.8,0,5,2.3,5,5.1
	C242.8,464.8,240.6,467.1,237.8,467.1z"/>
<g>
	<path class="st0" d="M501.5,341.1c0,2.5-1.3,4-3.8,4h-97.3c-2.5,0-3.8-1.5-3.8-4v-4.4c0-2.5,1.3-4.2,3.8-4.2h97.3
		c2.5,0,3.8,1.7,3.8,4.2V341.1z"/>
	<path class="st1" d="M512,335.4c0,2.5-3.1,5.5-5.5,5.5H391.7c-2.3,0-5.5-2.9-5.5-5.5v-29.6c0-2.5,3.1-4.8,5.5-4.8h114.9
		c2.3,0,5.5,2.3,5.5,4.8L512,335.4L512,335.4z"/>
	<path class="st2" d="M386.2,305.9c0-2.5,3.1-4.8,5.5-4.8h114.9c2.3,0,5.5,2.3,5.5,4.8v29.6c0,2.5-3.1,5.5-5.5,5.5"/>
	<g>
		<path class="st0" d="M398.8,327c0,0.4-0.6,0.8-1,0.8s-1-0.4-1-0.8v-13c0-0.4,0.6-0.8,1-0.8s1,0.4,1,0.8V327z M405.1,327
			c0,0.4-0.6,0.8-1,0.8s-1-0.4-1-0.8v-13c0-0.4,0.6-0.8,1-0.8s1,0.4,1,0.8V327z M411.4,327c0,0.4-0.6,0.8-1,0.8s-1-0.4-1-0.8v-13
			c0-0.4,0.6-0.8,1-0.8s1,0.4,1,0.8V327z"/>
	</g>
	<g>
		<path class="st3" d="M482.6,321c0,0.6-0.4,1-1,1h-62.9c-0.6,0-1-0.4-1-1s0.4-1,1-1h62.7C482.2,319.9,482.6,320.3,482.6,321z"/>
		<circle class="st3" cx="482.2" cy="320.5" r="6.5"/>
	</g>
	<circle class="st4" cx="482.2" cy="320.5" r="3.1"/>
	<path class="st5" d="M484.3,322.8c-1.3,1.3-3.1,1.3-4.4,0s-1.3-3.1,0-4.4"/>
	<path class="st6" d="M501.3,320.5c0,1.7-1.5,3.1-3.1,3.1s-3.1-1.5-3.1-3.1c0-1.7,1.5-3.1,3.1-3.1S501.3,318.9,501.3,320.5z"/>
	<path class="st5" d="M500.3,322.8c-1.3,1.3-3.1,1.3-4.4,0s-1.3-3.1,0-4.4"/>
	<path class="st0" d="M501.5,383.6c0,2.5-1.3,5.5-3.8,5.5h-97.3c-2.5,0-3.8-2.9-3.8-5.5v-4.4c0-2.5,1.3-4.8,3.8-4.8h97.3
		c2.5,0,3.8,2.3,3.8,4.8V383.6z"/>
	<path class="st1" d="M512,378c0,2.5-3.1,4.8-5.5,4.8H391.7c-2.3,0-5.5-2.3-5.5-4.8v-29.6c0-2.5,3.1-5.5,5.5-5.5h114.9
		c2.5,0,5.5,2.9,5.5,5.5L512,378L512,378z"/>
	<path class="st2" d="M386.2,348.4c0-2.5,3.1-5.5,5.5-5.5h114.9c2.5,0,5.5,2.9,5.5,5.5V378c0,2.5-3.1,4.8-5.5,4.8"/>
	<g>
		<path class="st0" d="M398.8,369.6c0,0.4-0.6,0.8-1,0.8c-0.4,0.2-1-0.2-1-0.8v-13c0-0.4,0.6-0.8,1-0.8s1,0.4,1,0.8V369.6z
			 M405.1,369.4c0,0.4-0.4,0.8-0.8,0.8H404c-0.4,0-0.8-0.4-0.8-0.8v-12.8c0-0.4,0.4-0.8,0.8-0.8h0.2c0.4,0,0.8,0.4,0.8,0.8v12.8
			H405.1z M411.4,369.4c0,0.4-0.4,0.8-0.8,0.8h-0.2c-0.4,0-0.8-0.4-0.8-0.8v-12.8c0-0.4,0.4-0.8,0.8-0.8h0.2c0.4,0,0.8,0.4,0.8,0.8
			V369.4z"/>
	</g>
	<g>
		<path class="st3" d="M482,362.9c0,0.6-0.4,1-1,1h-62.3c-0.6,0-1-0.4-1-1s0.4-1,1-1H481C481.6,361.8,482,362.3,482,362.9z"/>
		<circle class="st3" cx="482.2" cy="363.1" r="6.5"/>
	</g>
	<circle class="st4" cx="482.2" cy="363.1" r="3.1"/>
	<path class="st5" d="M484.3,365.4c-1.3,1.3-3.1,1.3-4.4,0s-1.3-3.1,0-4.4"/>
	<path class="st6" d="M501.3,363.1c0,1.7-1.5,3.1-3.1,3.1s-3.1-1.5-3.1-3.1s1.5-3.1,3.1-3.1S501.3,361.4,501.3,363.1z"/>
	<path class="st5" d="M500.3,365.4c-1.3,1.3-3.1,1.3-4.4,0s-1.3-3.1,0-4.4"/>
	<path class="st0" d="M501.5,426.2c0,2.5-1.3,4.8-3.8,4.8h-97.3c-2.5,0-3.8-2.3-3.8-4.8v-4.4c0-2.3,1.3-3.4,3.8-3.4h97.3
		c2.5,0,3.8,1,3.8,3.4V426.2z"/>
	<path class="st1" d="M512,420.5c0,2.5-3.1,4.2-5.5,4.2H391.7c-2.3,0-5.5-1.7-5.5-4.2V391c0-2.5,3.1-4,5.5-4h114.9
		c2.5,0,5.5,1.5,5.5,4L512,420.5L512,420.5z"/>
	<path class="st2" d="M386.2,391c0-2.5,3.1-4,5.5-4h114.9c2.5,0,5.5,1.5,5.5,4v29.6c0,2.5-3.1,4.2-5.5,4.2"/>
	<g>
		<path class="st0" d="M398.8,412.2c0,0.4-0.6,0.8-1,0.8c-0.4,0.2-1-0.2-1-0.8v-13c0-0.4,0.6-0.8,1-0.8s1,0.4,1,0.8V412.2z
			 M405.1,412.2c0,0.4-0.6,0.8-1,0.8s-1-0.4-1-0.8v-13c0-0.4,0.6-0.8,1-0.8s1,0.4,1,0.8V412.2z M411.4,412.2c0,0.4-0.6,0.8-1,0.8
			s-1-0.4-1-0.8v-13c0-0.4,0.6-0.8,1-0.8s1,0.4,1,0.8V412.2z"/>
	</g>
	<g>
		<path class="st3" d="M482.6,404.8c0,0.6-0.4,1-1,1h-62.9c-0.6,0-1-0.4-1-1s0.4-1,1-1h62.7C482.2,403.8,482.6,404.2,482.6,404.8z"
			/>
		<circle class="st3" cx="482.2" cy="405.7" r="6.5"/>
	</g>
	<circle class="st4" cx="482.2" cy="405.7" r="3.1"/>
	<path class="st5" d="M484.3,408c-1.3,1.3-3.1,1.3-4.4,0s-1.3-3.1,0-4.4"/>
	<path class="st6" d="M501.3,405.7c0,1.7-1.5,3.1-3.1,3.1s-3.1-1.5-3.1-3.1c0-1.7,1.5-3.1,3.1-3.1S501.3,404,501.3,405.7z"/>
	<path class="st5" d="M500.3,408c-1.3,1.3-3.1,1.3-4.4,0s-1.3-3.1,0-4.4"/>
</g>
<g>
	<path class="st7" d="M266.6,486.4h85.2v25h-85.2L266.6,486.4L266.6,486.4z"/>
	<path class="st10" d="M351.8,486.4h-85.2l0.9-4.4l1.8-8.8l0.6-2.9l1.8-8.8l0.9-4.4h73.5l0.9,4.4l1.8,8.8l0.6,2.9l1.8,8.8
		L351.8,486.4z"/>
	<polygon class="st11" points="334.2,492.2 334.2,502.5 337.1,502.5 337.1,505.5 343,505.5 343,502.5 345.9,502.5 345.9,492.2 	"/>
	<polygon class="st11" points="316.5,492.2 316.5,502.5 319.5,502.5 319.5,505.5 325.3,505.5 325.3,502.5 328.3,502.5 328.3,492.2 	
		"/>
	<polygon class="st12" points="298.9,492.2 298.9,502.5 301.8,502.5 301.8,505.5 307.7,505.5 307.7,502.5 310.6,502.5 310.6,492.2 	
		"/>
	<polygon class="st11" points="281.3,492.2 281.3,502.5 284.2,502.5 284.2,505.5 290.1,505.5 290.1,502.5 293,502.5 293,492.2 	"/>
	<path class="st13" d="M272.4,490.8h2.9v2.9h-2.9V490.8z M272.4,496.7h2.9v2.9h-2.9V496.7z M272.4,502.5h2.9v2.9h-2.9V502.5z"/>
	<g>
		<path class="st14" d="M275.4,473.1v2.9h-6.8l0.6-2.9H275.4z M273.9,479v2.9h-6.5l0.6-2.9H273.9z M350.9,482h-6.5v-3h5.9L350.9,482
			z M276.8,467.3v2.9h-7.1l0.6-2.9H276.8z M278.3,461.4v2.9H271l0.6-2.9H278.3z M349.7,476.1H343v-2.9h6.2L349.7,476.1z
			 M348.6,470.2h-7.1v-2.9h6.5L348.6,470.2z M347.4,464.3H340v-2.9h6.8L347.4,464.3z"/>
	</g>
</g>
<path class="st15" d="M338.6,499.6c0-39.5,137.1,5.9,140.5-68.6"/>
<path class="st15" d="M322.4,497.6c0-39.5-48.6,8-45.3-66.4"/>
<path class="st15" d="M287.1,497.6C184.3,509.3,94,482.8,97.4,408.3"/>
<g>
	<path class="st16" d="M177.7,399.4l-2.6-1.9c-0.1-0.1-0.1-0.2-0.1-0.3l0.1-1.7c0-0.2,0.1-0.3,0.3-0.3s0.3,0.1,0.3,0.3l-0.1,1.5
		l2.5,1.8c0.1,0.1,0.2,0.3,0.1,0.4C178,399.5,177.8,399.5,177.7,399.4L177.7,399.4L177.7,399.4z"/>
	<path class="st16" d="M179.9,401.1c-0.1-1.7-1.9-1.6-2-1.6c-0.2,0-0.3-0.1-0.3-0.3c0-0.2,0.1-0.3,0.3-0.3l0,0
		c0.9,0,2.5,0.4,2.6,2.2c0,0.2-0.1,0.3-0.3,0.3C180,401.3,179.9,401.2,179.9,401.1z"/>
	<path class="st16" d="M177.8,402.3c-0.1-0.1-0.1-0.3,0-0.4c1.2-1.2-0.1-2.5-0.1-2.5c-0.1-0.1-0.1-0.3,0-0.4s0.3-0.1,0.4,0
		c0.6,0.6,1.4,2.1,0.1,3.4C178.1,402.4,177.9,402.4,177.8,402.3L177.8,402.3z"/>
	<path class="st16" d="M176.5,399.9c-0.1-0.1-0.1-0.3,0-0.4c0.6-0.5,1.3-0.7,1.3-0.7c0.2,0,0.3,0.1,0.4,0.2c0,0.2-0.1,0.3-0.2,0.4
		c0,0-0.6,0.1-1,0.5C176.8,400.1,176.6,400.1,176.5,399.9L176.5,399.9z M178.8,396l-0.2-1.6c0-0.2,0.1-0.3,0.3-0.3s0.3,0.1,0.3,0.3
		l0,0l0.2,1.5l2.8,1.4c0.2,0.1,0.2,0.3,0.1,0.4c-0.1,0.2-0.3,0.2-0.4,0.1l-2.9-1.4C178.9,396.2,178.8,396.1,178.8,396z"/>
	<path class="st16" d="M181.7,397.5c0-0.2,0.1-0.3,0.2-0.4c0.8-0.2,2.5,0,2.9,1.7c0,0.2-0.1,0.3-0.2,0.4c-0.2,0-0.3-0.1-0.4-0.2
		c-0.4-1.6-2.1-1.3-2.2-1.3C181.9,397.7,181.8,397.6,181.7,397.5z"/>
	<path class="st16" d="M182.5,400.6L182.5,400.6c-0.1-0.1-0.2-0.3-0.1-0.4c0.9-1.4-0.5-2.4-0.6-2.5s-0.2-0.3-0.1-0.4
		c0.1-0.1,0.3-0.2,0.4-0.1l0,0c0.7,0.5,1.7,1.9,0.7,3.3C182.8,400.6,182.6,400.6,182.5,400.6L182.5,400.6z"/>
	<path class="st16" d="M180.4,398c-0.1-0.1-0.1-0.3,0.1-0.4l0,0c0.7-0.5,1.5-0.5,1.5-0.5c0.2,0,0.3,0.1,0.3,0.3
		c0,0.2-0.1,0.3-0.3,0.3c0,0-0.7,0-1.2,0.4C180.7,398.2,180.5,398.2,180.4,398L180.4,398L180.4,398z"/>
	<path class="st17" d="M185.1,390.1c-3.1,4.9-8.8,7.7-17.7,5.5l0,0l-8.3,4.6l-4.1-2.4l12.1-4.1c8.2-8.5,13.2-8.6,13.2-8.6
		c0.8-1.5,1.9-1.8,1.9-1.8l-0.3-1.7c5.1-0.4,6.3,2.7,6.3,2.7l0.6,0.7l-0.6,1.3c0,0-1.3,0.5-2,2C186,388.5,185.6,389.2,185.1,390.1
		L185.1,390.1z"/>
	<path class="st18" d="M185.1,390.1c-3.1,4.9-8.8,7.7-17.7,5.5l0,0l-8.3,4.6l-4.1-2.4l1.6-0.5l3.1,1.8l8.3-4.6l0,0
		c8.9,2.2,14.7-0.5,17.7-5.5c0.1-0.1,0.1-0.2,0.2-0.2C185.6,389.1,185.4,389.6,185.1,390.1L185.1,390.1z M186.8,387
		c0.7-1.3,1.7-1.8,2-2l-0.5,1.1c0,0-0.9,0.4-1.7,1.5C186.6,387.4,186.7,387.2,186.8,387L186.8,387z"/>
	<path class="st19" d="M188.3,384.3c-0.1,0.2-0.3,0.3-0.5,0.3c-0.3,0-0.6-0.2-0.8-0.3c-0.2-0.2-0.4-0.4-0.7-0.6
		c-0.2-0.2-0.6-0.3-0.8-0.2c-0.1,0-0.2,0.1-0.2,0.1c-0.4,0.3-0.6,0.7-0.7,1.1c-0.3,1.6-0.4,2-1.9,2.8c-1.2,0.7-2.5,1.2-3.9,1.5
		c-1.4,0.2-2.8,0.1-4-0.6c-0.5-0.3-0.5-0.5-0.4-0.9v-0.1c3.7-2.3,5.8-2.3,5.8-2.3c0.8-1.5,1.9-1.8,1.9-1.8l-0.2-1.7
		C187,381.2,188.2,384.3,188.3,384.3L188.3,384.3L188.3,384.3z"/>
	<path class="st18" d="M188.3,384.3c-0.1,0.2-0.3,0.3-0.5,0.3c-0.3,0-0.6-0.2-0.8-0.3c-0.3-0.3-0.9-1-1.5-0.8
		c-0.1,0-0.2,0.1-0.2,0.1c-1,0.7-0.6,1.9-1.3,2.9c-0.3,0.5-0.8,0.8-1.3,1.1c-1.2,0.7-2.5,1.2-3.9,1.5c-1.4,0.2-2.8,0.1-4-0.6
		c-0.5-0.3-0.5-0.5-0.4-0.9v-0.1c0,0,0,0,0.1,0c0.1,0.1,0.2,0.1,0.3,0.2c1.2,0.7,2.7,0.8,4,0.6c1.4-0.2,2.7-0.8,3.9-1.5
		c1.4-0.8,1.6-1.3,1.9-2.8c0.1-0.4,0.3-0.8,0.7-1.1c0.1-0.1,0.2-0.1,0.2-0.1c0.3-0.1,0.6,0,0.8,0.2c0.5,0.3,0.8,1,1.5,0.9h0.1
		c0.2,0.3,0.3,0.5,0.3,0.5L188.3,384.3L188.3,384.3z"/>
	<path class="st20" d="M183.1,383.5L183.1,383.5c0,0.1-1.2,0.5-1.4,0.5c-0.7,0.4-1.3,1-1.6,1.7c0,0-2.1,0-5.7,2.3
		c-0.1-0.2,0-0.3,0-0.5v-0.1c3.7-2.3,5.8-2.4,5.8-2.4c0.4-0.9,1.1-1.5,1.6-1.7l0,0C182.3,383.1,182.7,383.3,183.1,383.5L183.1,383.5
		z M188.3,384.3c-0.1,0.1-0.2,0.2-0.4,0.3c-0.7-1.1-2.1-2.1-4.3-2.4c-0.6-0.1-1.2-0.1-1.7-0.1l-0.1-0.6c0.2,0,0.4,0,0.5,0
		c4.7-0.1,5.8,2.7,5.8,2.7L188.3,384.3L188.3,384.3z"/>
	<path class="st19" d="M178.2,391.1l-10.9,4.5l0,0l-8.3,4.6l-4.1-2.4l12.1-4.1c2.3-2.4,4.3-4.1,6.1-5.4L178.2,391.1z"/>
	<path class="st21" d="M178.2,391.1l-0.7,0.3l-3.9-2.1c-1.8,1.2-1.5,2.2-3.8,4.6l-13.7,4.6l-1.3-0.7l12.1-4.1
		c2.3-2.4,4.3-4.1,6.1-5.4L178.2,391.1z"/>
	<path class="st22" d="M159.2,400.1l-0.2,0.1l-2.6-2.9l0.2-0.1L159.2,400.1z M160.1,399.6l-0.1,0.1l-2.5-2.7l0.2-0.1L160.1,399.6z
		 M161.1,399l-0.2,0.1l-2.3-2.6l0.2-0.1L161.1,399z M162.1,398.5l-0.2,0.1l-2.2-2.4l0.2-0.1L162.1,398.5z M163.1,397.9L163,398
		l-2-2.2l0.2-0.1L163.1,397.9z M164.1,397.4l-0.2,0.1l-1.9-2.1l0.2-0.1L164.1,397.4z M165.1,396.8l-0.2,0.1l-1.7-1.9l0.2-0.1
		L165.1,396.8z M166.1,396.3l-0.1,0.1l-1.6-1.7l0.2-0.1L166.1,396.3z M167,395.7l-0.2,0.1l-1.4-1.6l0.2-0.1L167,395.7z M168.1,395.3
		l-0.2,0.1l-1.3-1.5l0.2-0.1L168.1,395.3z M169.2,394.8l-0.2,0.1l-1.5-1.7l0.1-0.1L169.2,394.8z"/>
	<path class="st23" d="M187.2,385.3c0.7-0.1,1.1-0.1,1.6-0.4c0,0,1.4,0.1,1.9,1.3h-2.6C188,385.8,187.7,385.4,187.2,385.3
		L187.2,385.3z"/>
	<path class="st24" d="M178.9,392.7c-2.8,1.7-7.2,2.3-13.7,0.6c5.7-3.7,11.3-8,14.9-8.2C183.2,387.6,182,390.8,178.9,392.7z"/>
	<path class="st20" d="M178.9,392.7c-2.8,1.7-7.2,2.3-13.7,0.6c0.8-0.5,1.5-1,2.3-1.5c5.7,1.3,9.6,0.6,12.2-1
		c0.9-0.5,1.6-1.2,2.2-1.9C181.7,390.3,180.6,391.7,178.9,392.7z"/>
	<path class="st23" d="M183.9,391.7c-0.4-1.2,0.7-2.3,0.7-4.2c0-0.7-0.1-1.5-0.6-2.1c-0.6-0.8-1.3-1.1-1.9-2.1l-0.2-1.7
		c0.2,0,0.4,0,0.5,0c-0.1,1.7,1.9,2.2,2.6,3.5c0.7,1.2,0.4,2.6,0,5.2C184.7,390.6,184.4,391.2,183.9,391.7L183.9,391.7z"/>
	<path class="st23" d="M184.1,384.8c0-0.1,0.1-0.1,0.1-0.1l0,0l4.7,0.7c0.1,0,0.1,0.1,0.1,0.1c0,0.1-0.1,0.1-0.1,0.1l-4.7-0.7
		C184.1,384.9,184.1,384.8,184.1,384.8L184.1,384.8L184.1,384.8z"/>
	<ellipse class="st23" cx="186.5" cy="385.1" rx="0.6" ry="0.6"/>
	<circle class="st25" cx="186.5" cy="385.1" r="0.4"/>
	<path class="st26" d="M186.8,385.3c-0.1,0.2-0.3,0.2-0.5,0.1c-0.3-0.2-0.2-0.6,0.1-0.7C186.3,385,186.5,385.3,186.8,385.3
		C186.8,385.2,186.8,385.2,186.8,385.3z"/>
	<ellipse class="st16" cx="186.5" cy="385.1" rx="0.2" ry="0.2"/>
	<path class="st27" d="M186.5,385c-0.1,0,0-0.2,0.1-0.1C186.7,384.9,186.6,385.1,186.5,385z"/>
	<path class="st22" d="M178.9,388.1c0,0-0.2,0.1-0.4,0.1c-0.6,0.1-1-0.5-0.7-1.1c0.1-0.1,0.2-0.2,0.2-0.2S177.6,388.3,178.9,388.1
		L178.9,388.1z M175.4,388.6c0,0-0.1,0-0.3,0c-0.2-0.1-0.4-0.2-0.5-0.5s0-0.5,0.1-0.6s0.2-0.1,0.2-0.1s0,0.1-0.1,0.2
		c-0.1,0.4,0,0.7,0.3,0.9C175.2,388.5,175.4,388.6,175.4,388.6L175.4,388.6z M180.5,388.4C180.5,388.4,180.5,388.5,180.5,388.4
		c-0.8,0.6-1.4,0-1.2-0.8c0.1-0.2,0.1-0.2,0.1-0.2s-0.2,1.4,0.9,1.1L180.5,388.4z M179.7,386.6L179.7,386.6c-0.8,0.6-1.4,0-1.2-0.8
		c0.1-0.2,0.1-0.2,0.1-0.2s0,0.1,0,0.2c0,0.7,0.3,1,0.9,0.8H179.7L179.7,386.6z M181.4,390.2c0,0-0.4,0.4-0.8,0.3
		c-0.3-0.1-0.6-0.5-0.4-1.1c0.1-0.2,0.1-0.2,0.1-0.2s-0.2,1.4,0.9,1.1L181.4,390.2L181.4,390.2z M178.6,389.8L178.6,389.8
		c-0.6,0.5-1.1,0.4-1.3,0c-0.2-0.3-0.2-0.6-0.1-0.9c0-0.2,0.1-0.3,0.1-0.3c0,0.2,0,0.6,0.2,1c0.1,0.1,0.2,0.2,0.3,0.3
		c0.1,0,0.3,0,0.4,0C178.4,389.9,178.6,389.8,178.6,389.8L178.6,389.8z M181.3,387.9L181.3,387.9c-0.9,0.4-1.4-0.3-0.9-1
		c0.1-0.1,0.2-0.2,0.2-0.2s0,0.1-0.1,0.2C180.2,388.2,181.3,387.9,181.3,387.9L181.3,387.9z M180.4,386.2c0,0-0.1,0.1-0.3,0.1
		c-0.5,0.1-0.7-0.4-0.4-0.9c0.1-0.1,0.1-0.1,0.1-0.1s0,0.1,0,0.2C179.6,386.4,180.4,386.2,180.4,386.2L180.4,386.2z M176.8,388
		c0,0-0.2,0.1-0.4,0.1c-0.4,0-0.6-0.2-0.7-0.5c0-0.3,0.1-0.5,0.2-0.7c0.1-0.1,0.2-0.2,0.2-0.2s-0.6,1.3,0.6,1.2L176.8,388L176.8,388
		z M181.7,389.1C181.7,389.1,181.6,389.1,181.7,389.1c-0.5,0.4-0.9,0-0.7-0.5c0-0.1,0.1-0.1,0.1-0.1c0,0.1,0,0.3,0.1,0.5
		C181.2,389.2,181.4,389.2,181.7,389.1L181.7,389.1L181.7,389.1z M179.8,391.2c0,0-0.1,0.1-0.3,0.2c-0.5,0.2-0.9-0.3-0.6-0.8
		c0.1-0.1,0.1-0.2,0.1-0.2C179.1,390.4,178.9,391.4,179.8,391.2L179.8,391.2L179.8,391.2z M179,392.3
		C179,392.3,178.9,392.3,179,392.3c-0.5,0.4-1,0-0.7-0.5c0-0.1,0.1-0.1,0.1-0.1s0,0.1,0,0.2C178.3,392.2,178.5,392.4,179,392.3
		L179,392.3L179,392.3z M179.7,389.4c0,0-0.1,0.1-0.3,0.2c-0.5,0.2-0.9-0.3-0.6-0.8c0.1-0.1,0.1-0.2,0.1-0.2s0,0.1,0,0.2
		C178.9,389.3,179.1,389.6,179.7,389.4L179.7,389.4L179.7,389.4z M173.4,390.1c0,0-0.2,0.1-0.4,0.1c-0.6,0.1-1-0.5-0.7-1.1
		c0.1-0.1,0.2-0.2,0.2-0.2s0,0.1,0,0.2C172.4,389.8,172.6,390.2,173.4,390.1L173.4,390.1z M171,390.9c0,0-0.1,0-0.2,0
		c-0.1,0-0.3-0.1-0.4-0.3c-0.1-0.2,0-0.4,0.1-0.6l0,0v0.1C170.5,390.4,170.6,390.7,171,390.9C170.9,390.9,171,390.9,171,390.9z
		 M175.3,390.5C175.3,390.5,175.2,390.5,175.3,390.5c-0.8,0.6-1.4,0-1.2-0.8c0.1-0.2,0.1-0.2,0.1-0.2s0,0.1,0,0.2
		c0,0.7,0.3,1,0.9,0.8H175.3L175.3,390.5z M174.4,388.9c0,0-0.1,0.1-0.2,0.2c-0.4,0.2-0.8-0.2-0.6-0.8c0-0.1,0.1-0.2,0.1-0.2
		c0,0.1,0,0.4,0.1,0.6C173.8,389,174,389,174.4,388.9L174.4,388.9L174.4,388.9z M175.8,392c0,0-0.1,0.1-0.2,0.2
		c-0.5,0.2-0.8-0.3-0.6-0.8c0.1-0.1,0.1-0.2,0.1-0.2c0,0.1,0,0.4,0.1,0.6C175.3,392.1,175.5,392.1,175.8,392L175.8,392z
		 M176.6,393.2c0,0-0.1,0.1-0.2,0.2c-0.4,0.2-0.8-0.2-0.6-0.8c0.1-0.1,0.1-0.2,0.1-0.2s-0.1,0.9,0.5,0.8
		C176.4,393.3,176.5,393.2,176.6,393.2z M175.4,393.6L175.4,393.6c-0.4,0.3-0.7,0-0.6-0.4c0-0.1,0.1-0.1,0.1-0.1
		c0,0.1,0,0.3,0.1,0.4C175,393.7,175.2,393.7,175.4,393.6L175.4,393.6L175.4,393.6z M178.4,391.4c0,0-0.1,0.1-0.2,0.2
		c-0.1,0-0.2,0.1-0.3,0c-0.3-0.1-0.5-0.4-0.3-0.8c0.1-0.1,0.1-0.2,0.1-0.2c0,0.1,0,0.4,0.1,0.6s0.2,0.2,0.4,0.2
		C178.3,391.4,178.4,391.4,178.4,391.4z M172.8,391.7c0,0-0.1,0.1-0.3,0.1c-0.5,0.1-0.8-0.3-0.7-0.8c0.1-0.3,0.2-0.4,0.3-0.4
		c0,0,0,0.1-0.1,0.2C171.8,392,172.8,391.7,172.8,391.7L172.8,391.7z M176.6,389.6c0,0-0.1,0.1-0.3,0.2c-0.6,0.2-1.1-0.3-0.8-1
		c0.1-0.2,0.1-0.2,0.1-0.2s-0.2,1.5,0.9,1.1L176.6,389.6z M171.8,390.3c0,0-0.1,0.1-0.2,0.1c-0.4,0-0.6-0.4-0.3-0.8
		c0.1-0.1,0.1-0.1,0.1-0.1c0,0.1-0.1,0.3-0.1,0.6C171.3,390.2,171.5,390.3,171.8,390.3L171.8,390.3z M174.9,392.9
		c0,0-0.1,0.1-0.3,0.1c-0.5,0-0.7-0.5-0.4-0.9c0.1-0.1,0.1-0.1,0.1-0.1C174.4,391.9,173.9,392.9,174.9,392.9L174.9,392.9
		L174.9,392.9z M177,391.3c0,0-0.1,0.1-0.3,0.2c-0.5,0.2-0.9-0.3-0.6-0.8c0.1-0.1,0.1-0.2,0.1-0.2s0,0.1,0,0.2
		C176.2,391.2,176.4,391.4,177,391.3L177,391.3L177,391.3z M170.3,392.7c0,0-0.1,0.1-0.3,0.1c-0.4,0.1-0.7-0.4-0.4-0.8
		c0.1-0.1,0.1-0.1,0.1-0.1s0,0.1,0,0.2C169.6,392.4,169.7,392.7,170.3,392.7L170.3,392.7L170.3,392.7z M170,391.2L170,391.2
		c-0.1,0.1-0.1,0.1-0.2,0.1c-0.3,0.1-0.6-0.2-0.4-0.6c0-0.1,0.1-0.1,0.1-0.1s0,0,0,0.1C169.5,391.1,169.6,391.3,170,391.2L170,391.2
		L170,391.2z M169.1,392.1L169.1,392.1c-0.6,0.2-0.9-0.3-0.5-0.7c0.1-0.1,0.1-0.1,0.1-0.1v0.1C168.6,391.8,168.6,392,169.1,392.1
		L169.1,392.1L169.1,392.1z M168.4,392.5L168.4,392.5c-0.5,0.4-1,0-0.7-0.5c0-0.1,0.1-0.1,0.1-0.1v0.2
		C167.8,392.4,167.9,392.6,168.4,392.5L168.4,392.5z M167.5,393.1L167.5,393.1c-0.5,0.4-0.9,0-0.7-0.5c0-0.1,0.1-0.1,0.1-0.1
		c0,0.1,0,0.5,0.2,0.6C167.2,393.2,167.4,393.2,167.5,393.1L167.5,393.1L167.5,393.1z M171.3,392c0,0-0.1,0.1-0.3,0.2
		c-0.5,0.2-0.9-0.3-0.6-0.8c0.1-0.1,0.1-0.2,0.1-0.2c0,0.2,0,0.4,0.1,0.7C170.7,392.1,170.9,392.1,171.3,392L171.3,392L171.3,392z
		 M174.4,391.5c0,0-0.1,0.1-0.3,0.2c-0.5,0.2-0.9-0.3-0.6-0.8c0.1-0.1,0.1-0.2,0.1-0.2s0,0.1,0,0.2
		C173.6,391.4,173.8,391.6,174.4,391.5L174.4,391.5L174.4,391.5z M177.4,387.1c0,0-0.1,0-0.2,0c-0.1,0-0.3-0.2-0.4-0.4
		c0-0.2,0-0.4,0.1-0.4c0.1-0.1,0.1-0.1,0.1-0.1s-0.1,0.5,0.2,0.8C177.3,387.1,177.4,387.1,177.4,387.1L177.4,387.1z M172.4,393
		L172.4,393c-0.6,0.2-0.9-0.3-0.5-0.7c0.1-0.1,0.1-0.1,0.1-0.1c0,0.1-0.1,0.3-0.1,0.5S172.1,393,172.4,393L172.4,393L172.4,393z
		 M169.6,393.2L169.6,393.2c-0.5,0.4-0.9,0-0.7-0.5c0-0.1,0.1-0.1,0.1-0.1c0,0.1,0,0.5,0.2,0.6C169.3,393.3,169.4,393.3,169.6,393.2
		L169.6,393.2L169.6,393.2z M171.7,393.3C171.7,393.3,171.6,393.3,171.7,393.3c-0.5,0.4-0.9,0-0.7-0.5c0-0.1,0.1-0.1,0.1-0.1
		c0,0.1,0,0.3,0.1,0.5C171.2,393.4,171.4,393.4,171.7,393.3L171.7,393.3L171.7,393.3z M170.9,393.7L170.9,393.7
		c-0.5,0.4-0.9,0-0.7-0.5c0-0.1,0.1-0.1,0.1-0.1c0,0.1,0,0.3,0.1,0.5C170.4,393.8,170.6,393.8,170.9,393.7L170.9,393.7L170.9,393.7z
		 M168.8,393.6L168.8,393.6c-0.5,0.4-0.9,0-0.7-0.5c0-0.1,0.1-0.1,0.1-0.1c0,0.1,0,0.5,0.2,0.6C168.5,393.7,168.7,393.6,168.8,393.6
		L168.8,393.6L168.8,393.6z M174,393.4c0,0-0.1,0.1-0.3,0.1c-0.5,0.1-0.8-0.3-0.7-0.8c0.1-0.3,0.2-0.4,0.3-0.4c0,0,0,0.1-0.1,0.2
		C173,393.7,174,393.4,174,393.4z M177.7,392.7c0,0-0.1,0.1-0.3,0.1c-0.5,0.1-0.8-0.3-0.7-0.8c0.1-0.3,0.2-0.4,0.3-0.4
		c0,0,0,0.1-0.1,0.2C176.7,392.5,176.9,392.8,177.7,392.7L177.7,392.7L177.7,392.7z"/>
	<path class="st19" d="M183.1,390.8L183.1,390.8C183,390.8,183,390.7,183.1,390.8l0.1-0.2c0,0,0.1,0,0.1,0.1L183.1,390.8
		L183.1,390.8z M182.6,390.8c-0.1,0,0-0.1,0-0.2c0,0,0,0,0.1,0C182.8,390.6,182.8,390.7,182.6,390.8
		C182.7,390.8,182.7,390.8,182.6,390.8L182.6,390.8z M182.7,390.2C182.6,390.2,182.6,390.1,182.7,390.2V390c0-0.1,0.1,0,0.1,0.1
		L182.7,390.2L182.7,390.2L182.7,390.2L182.7,390.2z M182.2,390.6l0.1-0.1c0-0.1,0.1,0,0.1,0.1H182.2
		C182.3,390.7,182.2,390.7,182.2,390.6z M182.2,390.1l0.1-0.1c0-0.1,0.1,0,0.1,0.1H182.2C182.3,390.2,182.2,390.1,182.2,390.1z
		 M181.5,390.6l0.1-0.2c0-0.1,0.1,0,0.1,0.1L181.5,390.6C181.6,390.7,181.5,390.7,181.5,390.6z M181.7,390.2l0.1-0.2
		c0-0.1,0.1,0,0.1,0.1L181.7,390.2C181.8,390.3,181.7,390.2,181.7,390.2L181.7,390.2z M181.7,390.8l0.1-0.1
		C181.9,390.7,181.8,390.8,181.7,390.8C181.8,390.8,181.7,390.8,181.7,390.8L181.7,390.8z M181.8,391.2l0.1-0.1
		C182,391.2,181.9,391.2,181.8,391.2C181.9,391.3,181.8,391.2,181.8,391.2L181.8,391.2z M181.1,391l0.1-0.1
		C181.2,391,181.2,391,181.1,391C181.1,391.1,181,391,181.1,391L181.1,391z M181,391.5L181,391.5c0.1-0.1,0.2,0,0.1,0H181
		C181,391.7,180.9,391.6,181,391.5L181,391.5z M181.3,392.8l0.2-0.1h0.1v0.1l0,0H181.3C181.3,392.9,181.2,392.8,181.3,392.8z
		 M181.4,392l0.2-0.1c0.1,0,0.1,0.1,0,0.1H181.4C181.4,392.1,181.3,392,181.4,392z M180.4,392.2l0.2-0.1c0.1,0,0.1,0.1,0,0.1
		l-0.2,0.1C180.4,392.3,180.4,392.2,180.4,392.2L180.4,392.2z M180.5,392.8h0.1c0.1,0,0.1,0.1,0,0.1h-0.1V392.8L180.5,392.8z
		 M178.8,394.1h0.1c0.1,0,0.1,0.1,0,0.1h-0.1C178.8,394.2,178.7,394.1,178.8,394.1L178.8,394.1z M178.4,394.9l0.2-0.1
		c0.1,0,0.1,0,0.1,0.1H178.4C178.5,395.1,178.4,395,178.4,394.9L178.4,394.9z M178.2,394.6l0.1-0.1c0.1,0,0.1,0,0.1,0.1H178.2
		C178.2,394.8,178.1,394.7,178.2,394.6z M178,395.5l0.1-0.1c0,0,0,0,0.1,0c0,0,0,0,0,0.1l0,0H178C178.1,395.6,178,395.5,178,395.5
		L178,395.5z M179.8,393.3L179.8,393.3c0.1-0.2,0.2-0.1,0.1,0H179.8C179.8,393.4,179.7,393.3,179.8,393.3z M180.1,393.8
		C180,393.8,180,393.8,180.1,393.8l0.1-0.2h0.1v0.1l0,0L180.1,393.8C180.1,393.9,180.1,393.8,180.1,393.8L180.1,393.8z M179.5,394.2
		L179.5,394.2l0.1-0.1c0.1,0,0.1,0,0,0.1H179.5C179.6,394.3,179.6,394.2,179.5,394.2L179.5,394.2z M179.2,394
		C179.1,394,179.1,393.9,179.2,394l0.2-0.2c0.1,0,0.1,0,0.1,0.1L179.2,394L179.2,394L179.2,394z M180.6,393.3l0.1-0.1
		C180.8,393.3,180.7,393.3,180.6,393.3C180.7,393.4,180.6,393.4,180.6,393.3L180.6,393.3z M177.7,395.2L177.7,395.2L177.7,395.2
		L177.7,395.2l0.2-0.3c0,0,0.1,0,0.1,0.1L177.7,395.2C177.8,395.2,177.7,395.2,177.7,395.2L177.7,395.2z M180.2,393.2
		c0-0.1,0.1-0.1,0.1-0.1c0.1,0,0.1,0.1,0,0.1H180.2C180.3,393.2,180.2,393.2,180.2,393.2L180.2,393.2L180.2,393.2z M180.6,391.7
		l0.1-0.1c0.1,0,0.1,0,0.1,0.1H180.6C180.6,391.9,180.6,391.8,180.6,391.7z M177.5,395.7l0.1-0.1c0,0,0.1,0,0.1,0.1H177.5
		C177.6,395.8,177.5,395.7,177.5,395.7z M180.9,392.2c0-0.1,0.2-0.1,0.2,0C181.1,392.2,181.1,392.2,180.9,392.2
		C181,392.2,181,392.2,180.9,392.2C181,392.3,180.9,392.3,180.9,392.2z M183.4,391.3C183.4,391.3,183.4,391.2,183.4,391.3v-0.2
		c0,0,0,0,0.1,0C183.6,391.1,183.5,391.2,183.4,391.3C183.5,391.3,183.4,391.3,183.4,391.3L183.4,391.3z M183,391.7l0.1-0.1
		c0-0.1,0.1,0,0.1,0.1H183C183.1,391.8,183,391.8,183,391.7L183,391.7z M183,391.2l0.1-0.1c0-0.1,0.1,0,0.1,0.1H183
		C183,391.3,182.9,391.2,183,391.2z M182,391.6l0.1-0.2c0-0.1,0.1,0,0.1,0.1L182,391.6C182,391.7,181.9,391.6,182,391.6L182,391.6z
		 M182.5,391.3l0.1-0.2c0-0.1,0.1,0,0.1,0.1L182.5,391.3C182.6,391.4,182.5,391.3,182.5,391.3z M182.5,391.9l0.1-0.1
		C182.7,391.9,182.6,391.9,182.5,391.9C182.6,392,182.5,391.9,182.5,391.9L182.5,391.9z M182.6,392.4c-0.1,0,0-0.1,0-0.1s0,0,0.1,0
		c0,0,0,0,0,0.1H182.6C182.7,392.4,182.6,392.4,182.6,392.4L182.6,392.4z M182.3,392.2l0.1-0.1C182.5,392.1,182.4,392.2,182.3,392.2
		C182.4,392.3,182.2,392.2,182.3,392.2L182.3,392.2z M181.9,392l0.1-0.1C182.1,391.9,182,392,181.9,392C182,392,181.9,392,181.9,392
		L181.9,392z M181.8,392.6C181.8,392.6,181.8,392.5,181.8,392.6l0.1-0.1c0.1,0,0.1,0,0,0.1H181.8L181.8,392.6L181.8,392.6z
		 M182.2,392.6C182.2,392.6,182.2,392.5,182.2,392.6C182.2,392.5,182.2,392.5,182.2,392.6l0.1-0.1h0.1v0.1H182.2
		C182.3,392.6,182.2,392.6,182.2,392.6L182.2,392.6z M181.3,393.2C181.2,393.2,181.2,393.2,181.3,393.2L181.3,393.2l0.1-0.1h0.1v0.1
		H181.3L181.3,393.2z M180.4,393.9L180.4,393.9L180.4,393.9l0.2-0.2h0.1v0.1l0,0L180.4,393.9L180.4,393.9L180.4,393.9z M179.7,393.8
		L179.7,393.8L179.7,393.8C179.7,393.6,179.8,393.7,179.7,393.8L179.7,393.8L179.7,393.8z M181.4,392.5c0-0.1,0-0.1,0.1-0.1
		s0.1,0,0.1,0.1H181.4L181.4,392.5L181.4,392.5z M179.5,394.6C179.5,394.6,179.5,394.5,179.5,394.6L179.5,394.6v-0.1
		c0,0,0.1,0,0.1,0.1H179.5C179.6,394.6,179.6,394.6,179.5,394.6z M182,393C181.9,392.9,181.9,392.9,182,393c0-0.1,0.1-0.2,0.2-0.1
		c0,0,0,0,0,0.1C182.2,393,182.2,393,182,393C182.1,392.9,182.1,392.9,182,393L182,393L182,393z M180.1,393.3L180.1,393.3
		c0.1-0.1,0.2,0,0.1,0H180.1C180.1,393.5,180,393.4,180.1,393.3z M180.9,392.8L180.9,392.8C181,392.8,181,392.9,180.9,392.8v0.1
		C180.8,393,180.8,392.9,180.9,392.8L180.9,392.8z M181,393.8C180.9,393.7,180.9,393.7,181,393.8v-0.2c0,0,0,0,0.1,0c0,0,0,0,0,0.1
		l0,0L181,393.8L181,393.8L181,393.8z M179.9,394.1L179.9,394.1c0.1-0.1,0.1-0.1,0.1-0.1s0,0,0,0.1l0,0H179.9
		C179.9,394.2,179.9,394.1,179.9,394.1L179.9,394.1z M181.4,391.4l0.1-0.1C181.6,391.4,181.5,391.4,181.4,391.4
		C181.5,391.5,181.4,391.5,181.4,391.4L181.4,391.4z"/>
</g>
<g>
	<g>
		<path class="st28" d="M68.3,17.3H40c-4.2,0-7.5,3.4-7.5,7.5v65.5c0,4.2,3.4,7.5,7.5,7.5h28.3c4.2,0,7.5-3.4,7.5-7.5V24.8
			C75.8,20.7,72.5,17.3,68.3,17.3z"/>
		<path class="st29" d="M36.7,90.3V24.8c0-4.2,3.4-7.5,7.5-7.5H40c-4.2,0-7.5,3.4-7.5,7.5v65.5c0,4.2,3.4,7.5,7.5,7.5h4.2
			C40,97.9,36.7,94.5,36.7,90.3L36.7,90.3z"/>
		<path class="st30" d="M71.7,90.3c0,1.9-1.5,3.4-3.4,3.4H40c-1.9,0-3.4-1.5-3.4-3.4V24.8c0-1.9,1.5-3.4,3.4-3.4h3.5
			c0.7,0,1.3,0.6,1.3,1.3l0,0v0.8c0,1.1,0.9,1.9,1.9,1.9h14.8c1.1,0,1.9-0.9,1.9-1.9v-1.2c0-0.5,0.4-0.9,0.9-0.9h3.9
			c1.9,0,3.4,1.5,3.4,3.4L71.7,90.3L71.7,90.3z"/>
		<path class="st31" d="M44.5,35.2h-3.3c-0.3,0-0.5-0.2-0.5-0.5v-3.3c0-0.3,0.2-0.5,0.5-0.5h3.3c0.3,0,0.5,0.2,0.5,0.5v3.3
			C45,35,44.8,35.2,44.5,35.2z"/>
		<path class="st32" d="M52.1,35.2h-3.3c-0.3,0-0.5-0.2-0.5-0.5v-3.3c0-0.3,0.2-0.5,0.5-0.5h3.3c0.3,0,0.5,0.2,0.5,0.5v3.3
			C52.7,35,52.4,35.2,52.1,35.2z"/>
		<path class="st33" d="M59.8,35.2h-3.3c-0.3,0-0.5-0.2-0.5-0.5v-3.3c0-0.3,0.2-0.5,0.5-0.5h3.3c0.3,0,0.5,0.2,0.5,0.5v3.3
			C60.3,35,60.1,35.2,59.8,35.2z"/>
		<path class="st34" d="M67.5,35.2h-3.3c-0.3,0-0.5-0.2-0.5-0.5v-3.3c0-0.3,0.2-0.5,0.5-0.5h3.3c0.3,0,0.5,0.2,0.5,0.5v3.3
			C68,35,67.8,35.2,67.5,35.2z"/>
		<path class="st33" d="M44.5,43h-3.3c-0.3,0-0.5-0.2-0.5-0.5v-3.3c0-0.3,0.2-0.5,0.5-0.5h3.3c0.3,0,0.5,0.2,0.5,0.5v3.3
			C45,42.7,44.8,43,44.5,43z"/>
		<path class="st34" d="M52.1,43h-3.3c-0.3,0-0.5-0.2-0.5-0.5v-3.3c0-0.3,0.2-0.5,0.5-0.5h3.3c0.3,0,0.5,0.2,0.5,0.5v3.3
			C52.7,42.7,52.4,43,52.1,43z"/>
		<path class="st31" d="M59.8,43h-3.3c-0.3,0-0.5-0.2-0.5-0.5v-3.3c0-0.3,0.2-0.5,0.5-0.5h3.3c0.3,0,0.5,0.2,0.5,0.5v3.3
			C60.3,42.7,60.1,43,59.8,43z"/>
		<path class="st35" d="M67.5,43h-3.3c-0.3,0-0.5-0.2-0.5-0.5v-3.3c0-0.3,0.2-0.5,0.5-0.5h3.3c0.3,0,0.5,0.2,0.5,0.5v3.3
			C68,42.7,67.8,43,67.5,43z"/>
		<path class="st36" d="M44.5,50.8h-3.3c-0.3,0-0.5-0.2-0.5-0.5V47c0-0.3,0.2-0.5,0.5-0.5h3.3c0.3,0,0.5,0.2,0.5,0.5v3.3
			C45,50.6,44.8,50.8,44.5,50.8z"/>
		<path class="st37" d="M52.1,50.8h-3.3c-0.3,0-0.5-0.2-0.5-0.5V47c0-0.3,0.2-0.5,0.5-0.5h3.3c0.3,0,0.5,0.2,0.5,0.5v3.3
			C52.7,50.6,52.4,50.8,52.1,50.8z"/>
		<path class="st34" d="M59.8,50.8h-3.3c-0.3,0-0.5-0.2-0.5-0.5V47c0-0.3,0.2-0.5,0.5-0.5h3.3c0.3,0,0.5,0.2,0.5,0.5v3.3
			C60.3,50.6,60.1,50.8,59.8,50.8z"/>
		<path class="st37" d="M67.5,50.8h-3.3c-0.3,0-0.5-0.2-0.5-0.5V47c0-0.3,0.2-0.5,0.5-0.5h3.3c0.3,0,0.5,0.2,0.5,0.5v3.3
			C68,50.6,67.8,50.8,67.5,50.8z"/>
		<g>
			<path class="st31" d="M44.5,58.6h-3.3c-0.3,0-0.5-0.2-0.5-0.5v-3.3c0-0.3,0.2-0.5,0.5-0.5h3.3c0.3,0,0.5,0.2,0.5,0.5V58
				C45,58.3,44.8,58.6,44.5,58.6z M52.1,58.6h-3.3c-0.3,0-0.5-0.2-0.5-0.5v-3.3c0-0.3,0.2-0.5,0.5-0.5h3.3c0.3,0,0.5,0.2,0.5,0.5V58
				C52.7,58.3,52.4,58.6,52.1,58.6z"/>
		</g>
		<path class="st35" d="M59.8,58.6h-3.3c-0.3,0-0.5-0.2-0.5-0.5v-3.3c0-0.3,0.2-0.5,0.5-0.5h3.3c0.3,0,0.5,0.2,0.5,0.5V58
			C60.3,58.3,60.1,58.6,59.8,58.6z"/>
		<path class="st32" d="M44.5,66.3h-3.3c-0.3,0-0.5-0.2-0.5-0.5v-3.3c0-0.3,0.2-0.5,0.5-0.5h3.3c0.3,0,0.5,0.2,0.5,0.5v3.3
			C45,66.1,44.8,66.3,44.5,66.3z"/>
		<path class="st33" d="M52.1,66.3h-3.3c-0.3,0-0.5-0.2-0.5-0.5v-3.3c0-0.3,0.2-0.5,0.5-0.5h3.3c0.3,0,0.5,0.2,0.5,0.5v3.3
			C52.7,66.1,52.4,66.3,52.1,66.3z"/>
		<path class="st34" d="M59.8,66.3h-3.3c-0.3,0-0.5-0.2-0.5-0.5v-3.3c0-0.3,0.2-0.5,0.5-0.5h3.3c0.3,0,0.5,0.2,0.5,0.5v3.3
			C60.3,66.1,60.1,66.3,59.8,66.3z"/>
		<path class="st38" d="M67.5,58.6h-3.3c-0.3,0-0.5-0.2-0.5-0.5v-3.3c0-0.3,0.2-0.5,0.5-0.5h3.3c0.3,0,0.5,0.2,0.5,0.5V58
			C68,58.3,67.8,58.6,67.5,58.6z"/>
		<path class="st33" d="M44.5,90.2h-3.3c-0.3,0-0.5-0.2-0.5-0.5v-3.3c0-0.3,0.2-0.5,0.5-0.5h3.3c0.3,0,0.5,0.2,0.5,0.5v3.3
			C45,89.9,44.8,90.2,44.5,90.2z"/>
		<path class="st31" d="M52.1,90.2h-3.3c-0.3,0-0.5-0.2-0.5-0.5v-3.3c0-0.3,0.2-0.5,0.5-0.5h3.3c0.3,0,0.5,0.2,0.5,0.5v3.3
			C52.7,89.9,52.4,90.2,52.1,90.2z"/>
		<path class="st33" d="M59.8,90.2h-3.3c-0.3,0-0.5-0.2-0.5-0.5v-3.3c0-0.3,0.2-0.5,0.5-0.5h3.3c0.3,0,0.5,0.2,0.5,0.5v3.3
			C60.3,89.9,60.1,90.2,59.8,90.2z"/>
		<path class="st32" d="M67.5,90.2h-3.3c-0.3,0-0.5-0.2-0.5-0.5v-3.3c0-0.3,0.2-0.5,0.5-0.5h3.3c0.3,0,0.5,0.2,0.5,0.5v3.3
			C68,89.9,67.8,90.2,67.5,90.2z"/>
	</g>
	<g>
		<path class="st14" d="M133.2,44.9l35.9,22.9c0.4,0.3,0.9,0.5,1.4,0.5s1-0.1,1.4-0.5l35.9-22.9l-35.9-27.5c-0.8-0.6-2-0.6-2.8,0
			L133.2,44.9z"/>
		<path class="st39" d="M193.8,16.9h-46.6c-2.6,0-4.7,2.1-4.7,4.7v51.3c0,1.3,1,2.3,2.3,2.3h51.3c1.3,0,2.3-1,2.3-2.3V21.6
			C198.5,19,196.4,16.9,193.8,16.9z"/>
		<g>
			<path class="st8" d="M154.2,30.9h32.6c1.3,0,2.3-1,2.3-2.3s-1-2.3-2.3-2.3h-32.6c-1.3,0-2.3,1-2.3,2.3S152.9,30.9,154.2,30.9z
				 M186.8,35.6h-32.6c-1.3,0-2.3,1-2.3,2.3s1,2.3,2.3,2.3h32.6c1.3,0,2.3-1,2.3-2.3C189.1,36.6,188.1,35.6,186.8,35.6z M172.8,44.9
				h-18.6c-1.3,0-2.3,1-2.3,2.3s1,2.3,2.3,2.3h18.6c1.3,0,2.3-1,2.3-2.3S174.1,44.9,172.8,44.9z"/>
		</g>
		<path class="st30" d="M171.9,67.8c-0.4,0.3-0.9,0.5-1.4,0.5s-1-0.1-1.4-0.5l-35.9-22.9v42c0,2.6,2.1,4.7,4.7,4.7h65.3
			c2.6,0,4.7-2.1,4.7-4.7v-42L171.9,67.8z"/>
		<path class="st2" d="M203.1,91.5h-65.3c-2.6,0-4.7-2-4.7-4.7c0-0.7,0.4-1.4,1-1.9l35-23.3c0.4-0.3,0.9-0.5,1.4-0.5s1,0.1,1.4,0.5
			l35,23.3c0.6,0.4,1,1.1,1,1.9C207.8,89.5,205.7,91.5,203.1,91.5z"/>
	</g>
	<g>
		<path class="st14" d="M263.5,46.2l35.4,22.5c0.4,0.3,0.9,0.4,1.4,0.4s1-0.1,1.4-0.4l35.4-22.5l-35.4-27.1c-0.8-0.6-1.9-0.6-2.8,0
			L263.5,46.2z"/>
		<path class="st39" d="M323.2,18.7h-45.9c-2.5,0-4.6,2.1-4.6,4.6v50.5c0,1.3,1,2.3,2.3,2.3h50.5c1.3,0,2.3-1,2.3-2.3V23.3
			C327.8,20.7,325.7,18.7,323.2,18.7z"/>
		<path class="st30" d="M301.6,68.7c-0.4,0.3-0.9,0.4-1.4,0.4s-1-0.1-1.4-0.4l-35.4-22.5v41.3c0,2.5,2.1,4.6,4.6,4.6h64.3
			c2.5,0,4.6-2.1,4.6-4.6V46.2L301.6,68.7z"/>
		<path class="st2" d="M332.4,92.1h-64.3c-2.6,0-4.6-2-4.6-4.6c0-0.7,0.3-1.4,0.9-1.9l34.4-23c0.4-0.3,0.9-0.4,1.4-0.4
			s1,0.1,1.4,0.4l34.4,23c0.6,0.4,0.9,1.1,0.9,1.9C336.9,90.1,334.9,92.1,332.4,92.1z"/>
		<path class="st2" d="M304.7,34.9c0-0.6-0.5-1.1-1.1-1.1l0,0l0,0c-0.6,0-1.1,0.5-1.1,1.1v0.5c-0.8-0.6-1.7-0.9-2.7-0.9
			c-2.5,0-5.2,2.2-5.2,5.9c0,3.4,2.3,6.1,5.1,6.1c1.2,0,2.3-0.5,3.2-1.4c0.2,0.3,0.4,0.7,0.7,0.9c0.6,0.6,1.4,0.9,2.2,0.9
			c2.3,0,3.8-1.6,4.4-3.1c0.9-2.4,1.1-4.3,0.5-6.4l0,0c-0.8-2.8-2.7-5.1-5.3-6.5c-2.6-1.4-5.6-1.6-8.3-0.7c-2.6,0.8-4.8,2.7-6.2,5.1
			c-1.4,2.5-1.7,5.3-1,8c0.6,2.3,1.9,4.3,3.8,5.8c1.8,1.4,4.1,2.2,6.4,2.3l0,0c0.6,0,1.1-0.5,1.1-1.1s-0.5-1.1-1-1.1
			c-3.8-0.1-7.2-2.8-8.2-6.5c-0.6-2.1-0.3-4.4,0.8-6.4c1.1-2,2.8-3.4,5-4.1c2.2-0.7,4.6-0.5,6.7,0.6s3.6,2.9,4.3,5.2
			c0.5,1.7,0.2,3.4-0.5,5.1c-0.2,0.5-0.9,1.8-2.4,1.8c-0.3,0-0.5-0.2-0.7-0.3c-0.3-0.3-0.4-0.6-0.4-1L304.7,34.9z M299.7,44.3
			c-1.4,0-2.9-1.5-2.9-3.9c0-2.3,1.5-3.7,3-3.7s2.6,1.4,2.7,3.5v0.4C302.4,42.7,301.2,44.3,299.7,44.3L299.7,44.3z"/>
	</g>
	<g>
		<path class="st30" d="M460.1,88.5l-22-55.7c-0.2-0.6-0.8-1-1.5-1.1l-34.1-4c-1-0.1-1.9,0.5-2,1.5c0,0,0,0,0,0.1l-7.2,57.4
			c-0.1,1,0.6,1.9,1.5,2l0,0l62.8,7.2h0.2c0.9,0,1.7-0.7,1.8-1.6l0.5-5C460.3,89,460.2,88.7,460.1,88.5L460.1,88.5z"/>
		<path class="st14" d="M472.3,29.2c-0.1-1-1-1.7-2-1.6l0,0l-15.4,1.8l-45.6,5.4c-1,0.1-1.7,1-1.6,2l5.4,57.4
			c0.1,0.9,0.9,1.6,1.8,1.6h0.2l62.8-7.2c1-0.1,1.7-1,1.6-2l0,0L472.3,29.2z"/>
		<path class="st40" d="M445.4,42c-1,0-1.8-0.8-1.8-1.8c0-0.5,0.2-0.9,0.5-1.3l9-9c0.7-0.7,1.8-0.7,2.5,0s0.7,1.8,0,2.5l0,0l-9,9
			C446.3,41.8,445.9,42,445.4,42z"/>
		<circle class="st35" cx="459.8" cy="25.9" r="9"/>
	</g>
</g>
<g>
	<rect x="171.3" y="126.2" class="st8" width="8.1" height="34.7"/>
	<polygon class="st8" points="175.4,114.3 167.1,128.6 183.6,128.6 	"/>
	<polygon class="st8" points="175.4,172.6 183.6,158.4 167.1,158.4 	"/>
</g>
<g>
	<rect x="50.1" y="126.2" class="st8" width="8.1" height="34.7"/>
	<polygon class="st8" points="54.2,114.3 45.9,128.6 62.4,128.6 	"/>
	<polygon class="st8" points="54.2,172.6 62.4,158.4 45.9,158.4 	"/>
</g>
<g>
	<rect x="296.2" y="126.2" class="st8" width="8.1" height="34.7"/>
	<polygon class="st8" points="300.2,114.4 292,128.6 308.4,128.6 	"/>
	<polygon class="st8" points="300.2,172.7 308.4,158.4 292,158.4 	"/>
</g>
<g>
	<rect x="439.6" y="126.3" class="st8" width="8.1" height="34.7"/>
	<polygon class="st8" points="443.6,114.4 435.4,128.7 451.8,128.7 	"/>
	<polygon class="st8" points="443.6,172.7 451.8,158.5 435.4,158.5 	"/>
</g>
</svg>
