<svg xmlns="http://www.w3.org/2000/svg" xml:space="preserve" width="512" height="512" style="enable-background:new 0 0 512 512" viewBox="0 0 512 511"><path fill="#c4c0de" d="M512 53.883v378.144c0 29.477-23.887 53.38-53.367 53.38H53.367C23.887 485.41 0 461.506 0 432.026V53.883C0 24.403 23.887.5 53.367.5h405.266C488.113.5 512 24.402 512 53.883zm0 0" data-original="#bce8f1"/><path fill="#4b5267" d="M512 53.883v51.133H0V53.883C0 24.403 23.887.5 53.367.5h405.266C488.113.5 512 24.402 512 53.883zm0 0" data-original="#4c5072"/><path fill="#e1ebf0" d="M75.125 52.762c0 10.386-8.422 18.812-18.809 18.812-10.39 0-18.812-8.426-18.812-18.812 0-10.39 8.422-18.813 18.812-18.813 10.387 0 18.809 8.422 18.809 18.813zm0 0" data-original="#e1ebf0"/><path fill="#95dae8" d="M146.742 52.762c0 10.386-8.422 18.812-18.812 18.812-10.387 0-18.809-8.426-18.809-18.812 0-10.39 8.422-18.813 18.809-18.813 10.39 0 18.812 8.422 18.812 18.813zm0 0" data-original="#95dae8"/><path fill="#ff435e" d="M218.36 52.762c0 10.386-8.423 18.812-18.813 18.812-10.387 0-18.813-8.426-18.813-18.812 0-10.39 8.426-18.813 18.813-18.813 10.39 0 18.812 8.422 18.812 18.813zm0 0" data-original="#ff435e"/><path fill="#353a59" d="M364.54 292.156c0-7.43-.763-14.695-2.18-21.719l37.93-30.007-27.33-47.36-45.015 17.868a108.424 108.424 0 0 0-37.57-21.72l-7.04-47.89h-54.67l-7.024 47.89a108.35 108.35 0 0 0-37.586 21.72l-44.996-17.868-27.344 47.36 37.941 30.007a108.814 108.814 0 0 0-2.18 21.72c0 7.445.75 14.714 2.18 21.734l-37.941 30.011 27.344 47.356 44.996-17.867a108.227 108.227 0 0 0 37.586 21.718l7.023 47.88h54.672l7.039-47.88a108.301 108.301 0 0 0 37.57-21.718l45.016 17.867 27.328-47.356-37.93-30.011c1.418-7.02 2.18-14.29 2.18-21.735zm-108.532 52.477c-28.985 0-52.477-23.488-52.477-52.477 0-28.969 23.492-52.46 52.477-52.46 28.972 0 52.46 23.492 52.46 52.46 0 28.989-23.488 52.477-52.46 52.477zm0 0" data-original="#353a59"/><path fill="#4b5267" d="m240.402 429.402-6.53-44.53-7.927-2.65a94.155 94.155 0 0 1-32.87-18.992l-6.259-5.55-41.863 16.62-15.605-27.027 35.289-27.91-1.668-8.183a95.66 95.66 0 0 1-1.903-19.024c0-6.41.637-12.804 1.903-19.008l1.668-8.183-35.29-27.91 15.606-27.028 41.863 16.621 6.258-5.55a94.12 94.12 0 0 1 32.871-18.993l7.926-2.648 6.531-44.547h31.2l6.546 44.547 7.922 2.645a94.296 94.296 0 0 1 32.86 18.996l6.254 5.55 41.878-16.62 15.594 27.027-35.258 27.898 1.645 8.164a96.59 96.59 0 0 1 1.914 19.04c0 6.343-.645 12.757-1.914 19.054l-1.645 8.164 35.258 27.898-15.594 27.028-41.878-16.621-6.254 5.55a94.27 94.27 0 0 1-32.86 18.997l-7.918 2.644-6.547 44.531zm15.606-203.289c-36.426 0-66.059 29.63-66.059 66.043 0 36.426 29.633 66.063 66.059 66.063 36.418 0 66.047-29.637 66.047-66.063 0-36.418-29.63-66.043-66.047-66.043zm0 0" data-original="#4c5072"/></svg>